%TF.GenerationSoftware,KiCad,Pcbnew,(5.1.6)-1*%
%TF.CreationDate,2020-06-27T12:36:48+05:45*%
%TF.ProjectId,top,746f702e-6b69-4636-9164-5f7063625858,rev?*%
%TF.SameCoordinates,Original*%
%TF.FileFunction,Legend,Top*%
%TF.FilePolarity,Positive*%
%FSLAX46Y46*%
G04 Gerber Fmt 4.6, Leading zero omitted, Abs format (unit mm)*
G04 Created by KiCad (PCBNEW (5.1.6)-1) date 2020-06-27 12:36:48*
%MOMM*%
%LPD*%
G01*
G04 APERTURE LIST*
%TA.AperFunction,Profile*%
%ADD10C,0.050000*%
%TD*%
%ADD11C,0.150000*%
%ADD12C,0.500000*%
%ADD13C,0.120000*%
%ADD14C,0.127000*%
%ADD15C,0.200000*%
%ADD16C,0.015000*%
G04 APERTURE END LIST*
D10*
X67500000Y-61000000D02*
X136500000Y-61000000D01*
X67500000Y-124000000D02*
X67500000Y-61000000D01*
X136500000Y-124000000D02*
X67500000Y-124000000D01*
X136500000Y-61000000D02*
X136500000Y-124000000D01*
D11*
X78452380Y-72595238D02*
X79261904Y-72595238D01*
X79357142Y-72547619D01*
X79404761Y-72500000D01*
X79452380Y-72404761D01*
X79452380Y-72214285D01*
X79404761Y-72119047D01*
X79357142Y-72071428D01*
X79261904Y-72023809D01*
X78452380Y-72023809D01*
X79166666Y-71595238D02*
X79166666Y-71119047D01*
X79452380Y-71690476D02*
X78452380Y-71357142D01*
X79452380Y-71023809D01*
X79452380Y-70119047D02*
X78976190Y-70452380D01*
X79452380Y-70690476D02*
X78452380Y-70690476D01*
X78452380Y-70309523D01*
X78500000Y-70214285D01*
X78547619Y-70166666D01*
X78642857Y-70119047D01*
X78785714Y-70119047D01*
X78880952Y-70166666D01*
X78928571Y-70214285D01*
X78976190Y-70309523D01*
X78976190Y-70690476D01*
X78452380Y-69833333D02*
X78452380Y-69261904D01*
X79452380Y-69547619D02*
X78452380Y-69547619D01*
D12*
X91857142Y-81714285D02*
X91857142Y-80000000D01*
X94857142Y-80857142D02*
X91857142Y-80857142D01*
X94857142Y-78571428D02*
X94714285Y-78857142D01*
X94571428Y-79000000D01*
X94285714Y-79142857D01*
X93428571Y-79142857D01*
X93142857Y-79000000D01*
X93000000Y-78857142D01*
X92857142Y-78571428D01*
X92857142Y-78142857D01*
X93000000Y-77857142D01*
X93142857Y-77714285D01*
X93428571Y-77571428D01*
X94285714Y-77571428D01*
X94571428Y-77714285D01*
X94714285Y-77857142D01*
X94857142Y-78142857D01*
X94857142Y-78571428D01*
X92857142Y-76285714D02*
X95857142Y-76285714D01*
X93000000Y-76285714D02*
X92857142Y-76000000D01*
X92857142Y-75428571D01*
X93000000Y-75142857D01*
X93142857Y-75000000D01*
X93428571Y-74857142D01*
X94285714Y-74857142D01*
X94571428Y-75000000D01*
X94714285Y-75142857D01*
X94857142Y-75428571D01*
X94857142Y-76000000D01*
X94714285Y-76285714D01*
X92857142Y-71285714D02*
X95857142Y-71285714D01*
X93000000Y-71285714D02*
X92857142Y-71000000D01*
X92857142Y-70428571D01*
X93000000Y-70142857D01*
X93142857Y-70000000D01*
X93428571Y-69857142D01*
X94285714Y-69857142D01*
X94571428Y-70000000D01*
X94714285Y-70142857D01*
X94857142Y-70428571D01*
X94857142Y-71000000D01*
X94714285Y-71285714D01*
X94714285Y-67285714D02*
X94857142Y-67571428D01*
X94857142Y-68142857D01*
X94714285Y-68428571D01*
X94571428Y-68571428D01*
X94285714Y-68714285D01*
X93428571Y-68714285D01*
X93142857Y-68571428D01*
X93000000Y-68428571D01*
X92857142Y-68142857D01*
X92857142Y-67571428D01*
X93000000Y-67285714D01*
X94857142Y-66000000D02*
X91857142Y-66000000D01*
X93000000Y-66000000D02*
X92857142Y-65714285D01*
X92857142Y-65142857D01*
X93000000Y-64857142D01*
X93142857Y-64714285D01*
X93428571Y-64571428D01*
X94285714Y-64571428D01*
X94571428Y-64714285D01*
X94714285Y-64857142D01*
X94857142Y-65142857D01*
X94857142Y-65714285D01*
X94714285Y-66000000D01*
D13*
%TO.C,J3*%
X120950000Y-97100000D02*
X120950000Y-83700000D01*
X126300000Y-97100000D02*
X126300000Y-92150000D01*
X126300000Y-83700000D02*
X126300000Y-92150000D01*
X120950000Y-83700000D02*
X123150000Y-83700000D01*
X120950000Y-97100000D02*
X123250000Y-97100000D01*
%TO.C,J2*%
X120900000Y-65130000D02*
X122400000Y-65130000D01*
X120900000Y-78530000D02*
X122400000Y-78530000D01*
X120900000Y-78530000D02*
X120900000Y-65130000D01*
X126900000Y-78530000D02*
X126900000Y-73580000D01*
X126900000Y-78530000D02*
X125600000Y-78530000D01*
X126900000Y-65130000D02*
X125600000Y-65130000D01*
X126900000Y-65130000D02*
X126900000Y-73630000D01*
D11*
%TO.C,J4*%
X82028000Y-73320000D02*
X82028000Y-74212000D01*
X81012000Y-73320000D02*
X81012000Y-74212000D01*
X81012000Y-63798000D02*
X82028000Y-63798000D01*
X81266000Y-63544000D02*
X81012000Y-63798000D01*
X82028000Y-63798000D02*
X81774000Y-63544000D01*
X81774000Y-63544000D02*
X81266000Y-63544000D01*
X81012000Y-63798000D02*
X81012000Y-70018000D01*
X82028000Y-70018000D02*
X82028000Y-63798000D01*
X86092000Y-73320000D02*
X86092000Y-74212000D01*
X83552000Y-73320000D02*
X83552000Y-74212000D01*
X84568000Y-70018000D02*
X84568000Y-63798000D01*
X84568000Y-73320000D02*
X84568000Y-74212000D01*
X83552000Y-63798000D02*
X83552000Y-70018000D01*
X87108000Y-63798000D02*
X86092000Y-63798000D01*
X84568000Y-63798000D02*
X84314000Y-63544000D01*
X83552000Y-63798000D02*
X84568000Y-63798000D01*
X83806000Y-63544000D02*
X83552000Y-63798000D01*
X84314000Y-63544000D02*
X83806000Y-63544000D01*
X87108000Y-63798000D02*
X87108000Y-70018000D01*
X86854000Y-63544000D02*
X87108000Y-63798000D01*
X86600000Y-63544000D02*
X86854000Y-63544000D01*
X86346000Y-63544000D02*
X86600000Y-63544000D01*
X86092000Y-63798000D02*
X86346000Y-63544000D01*
X86092000Y-70018000D02*
X86092000Y-63798000D01*
X87108000Y-74212000D02*
X87108000Y-73320000D01*
X85838000Y-62020000D02*
X82282000Y-62020000D01*
X81520000Y-63544000D02*
X81520000Y-62782000D01*
X86600000Y-63544000D02*
X86600000Y-62782000D01*
D13*
X80250000Y-70020000D02*
X87870000Y-70020000D01*
X80250000Y-73320000D02*
X80250000Y-70020000D01*
X87870000Y-73320000D02*
X80250000Y-73320000D01*
X87870000Y-73320000D02*
X87870000Y-70020000D01*
D11*
X85838000Y-62020000D02*
G75*
G02*
X86600000Y-62782000I0J-762000D01*
G01*
X81520000Y-62782000D02*
G75*
G02*
X82282000Y-62020000I762000J0D01*
G01*
%TO.C,J1*%
X100772000Y-63798000D02*
X101788000Y-63798000D01*
X101788000Y-70018000D02*
X101788000Y-63798000D01*
X101788000Y-73320000D02*
X101788000Y-74212000D01*
X100772000Y-73320000D02*
X100772000Y-74212000D01*
X101026000Y-63544000D02*
X100772000Y-63798000D01*
X100772000Y-63798000D02*
X100772000Y-70018000D01*
X101788000Y-63798000D02*
X101534000Y-63544000D01*
X101534000Y-63544000D02*
X101026000Y-63544000D01*
X104328000Y-73320000D02*
X104328000Y-74212000D01*
X103312000Y-73320000D02*
X103312000Y-74212000D01*
X103312000Y-63798000D02*
X104328000Y-63798000D01*
X103566000Y-63544000D02*
X103312000Y-63798000D01*
X104328000Y-63798000D02*
X104074000Y-63544000D01*
X104074000Y-63544000D02*
X103566000Y-63544000D01*
X103312000Y-63798000D02*
X103312000Y-70018000D01*
X104328000Y-70018000D02*
X104328000Y-63798000D01*
X108392000Y-73320000D02*
X108392000Y-74212000D01*
X105852000Y-73320000D02*
X105852000Y-74212000D01*
X106868000Y-70018000D02*
X106868000Y-63798000D01*
X106868000Y-73320000D02*
X106868000Y-74212000D01*
X105852000Y-63798000D02*
X105852000Y-70018000D01*
X109408000Y-63798000D02*
X108392000Y-63798000D01*
X106868000Y-63798000D02*
X106614000Y-63544000D01*
X105852000Y-63798000D02*
X106868000Y-63798000D01*
X106106000Y-63544000D02*
X105852000Y-63798000D01*
X106614000Y-63544000D02*
X106106000Y-63544000D01*
X109408000Y-63798000D02*
X109408000Y-70018000D01*
X109154000Y-63544000D02*
X109408000Y-63798000D01*
X108900000Y-63544000D02*
X109154000Y-63544000D01*
X108646000Y-63544000D02*
X108900000Y-63544000D01*
X108392000Y-63798000D02*
X108646000Y-63544000D01*
X108392000Y-70018000D02*
X108392000Y-63798000D01*
X109408000Y-74212000D02*
X109408000Y-73320000D01*
X108138000Y-62020000D02*
X102042000Y-62020000D01*
X101280000Y-63544000D02*
X101280000Y-62782000D01*
X108900000Y-63544000D02*
X108900000Y-62782000D01*
D13*
X100010000Y-70020000D02*
X110170000Y-70020000D01*
X100010000Y-73320000D02*
X100010000Y-70020000D01*
X110170000Y-73320000D02*
X100010000Y-73320000D01*
X110170000Y-73320000D02*
X110170000Y-70020000D01*
D11*
X108138000Y-62020000D02*
G75*
G02*
X108900000Y-62782000I0J-762000D01*
G01*
X101280000Y-62782000D02*
G75*
G02*
X102042000Y-62020000I762000J0D01*
G01*
D13*
%TO.C,U1*%
X119710000Y-104690000D02*
X118450000Y-104690000D01*
X112890000Y-104690000D02*
X114150000Y-104690000D01*
X119710000Y-108450000D02*
X119710000Y-104690000D01*
X112890000Y-110700000D02*
X112890000Y-104690000D01*
D14*
%TO.C,U2*%
X75200000Y-119450000D02*
X75200000Y-112950000D01*
X93200000Y-119450000D02*
X75200000Y-119450000D01*
X93200000Y-112950000D02*
X93200000Y-119450000D01*
X75200000Y-93950000D02*
X75200000Y-94600000D01*
X77650000Y-93950000D02*
X75200000Y-93950000D01*
X93200000Y-93950000D02*
X90750000Y-93950000D01*
X93200000Y-94600000D02*
X93200000Y-93950000D01*
D15*
X94300000Y-111950000D02*
G75*
G03*
X94300000Y-111950000I-100000J0D01*
G01*
D13*
%TO.C,BZ1*%
X114100000Y-89300000D02*
G75*
G03*
X114100000Y-89300000I-6100000J0D01*
G01*
%TO.C,C1*%
X118470000Y-97300000D02*
G75*
G03*
X118470000Y-97300000I-2620000J0D01*
G01*
X115850000Y-94720000D02*
X115850000Y-99880000D01*
X115890000Y-94720000D02*
X115890000Y-99880000D01*
X115930000Y-94721000D02*
X115930000Y-99879000D01*
X115970000Y-94722000D02*
X115970000Y-99878000D01*
X116010000Y-94724000D02*
X116010000Y-99876000D01*
X116050000Y-94727000D02*
X116050000Y-99873000D01*
X116090000Y-94731000D02*
X116090000Y-96260000D01*
X116090000Y-98340000D02*
X116090000Y-99869000D01*
X116130000Y-94735000D02*
X116130000Y-96260000D01*
X116130000Y-98340000D02*
X116130000Y-99865000D01*
X116170000Y-94739000D02*
X116170000Y-96260000D01*
X116170000Y-98340000D02*
X116170000Y-99861000D01*
X116210000Y-94744000D02*
X116210000Y-96260000D01*
X116210000Y-98340000D02*
X116210000Y-99856000D01*
X116250000Y-94750000D02*
X116250000Y-96260000D01*
X116250000Y-98340000D02*
X116250000Y-99850000D01*
X116290000Y-94757000D02*
X116290000Y-96260000D01*
X116290000Y-98340000D02*
X116290000Y-99843000D01*
X116330000Y-94764000D02*
X116330000Y-96260000D01*
X116330000Y-98340000D02*
X116330000Y-99836000D01*
X116370000Y-94772000D02*
X116370000Y-96260000D01*
X116370000Y-98340000D02*
X116370000Y-99828000D01*
X116410000Y-94780000D02*
X116410000Y-96260000D01*
X116410000Y-98340000D02*
X116410000Y-99820000D01*
X116450000Y-94789000D02*
X116450000Y-96260000D01*
X116450000Y-98340000D02*
X116450000Y-99811000D01*
X116490000Y-94799000D02*
X116490000Y-96260000D01*
X116490000Y-98340000D02*
X116490000Y-99801000D01*
X116530000Y-94809000D02*
X116530000Y-96260000D01*
X116530000Y-98340000D02*
X116530000Y-99791000D01*
X116571000Y-94820000D02*
X116571000Y-96260000D01*
X116571000Y-98340000D02*
X116571000Y-99780000D01*
X116611000Y-94832000D02*
X116611000Y-96260000D01*
X116611000Y-98340000D02*
X116611000Y-99768000D01*
X116651000Y-94845000D02*
X116651000Y-96260000D01*
X116651000Y-98340000D02*
X116651000Y-99755000D01*
X116691000Y-94858000D02*
X116691000Y-96260000D01*
X116691000Y-98340000D02*
X116691000Y-99742000D01*
X116731000Y-94872000D02*
X116731000Y-96260000D01*
X116731000Y-98340000D02*
X116731000Y-99728000D01*
X116771000Y-94886000D02*
X116771000Y-96260000D01*
X116771000Y-98340000D02*
X116771000Y-99714000D01*
X116811000Y-94902000D02*
X116811000Y-96260000D01*
X116811000Y-98340000D02*
X116811000Y-99698000D01*
X116851000Y-94918000D02*
X116851000Y-96260000D01*
X116851000Y-98340000D02*
X116851000Y-99682000D01*
X116891000Y-94935000D02*
X116891000Y-96260000D01*
X116891000Y-98340000D02*
X116891000Y-99665000D01*
X116931000Y-94952000D02*
X116931000Y-96260000D01*
X116931000Y-98340000D02*
X116931000Y-99648000D01*
X116971000Y-94971000D02*
X116971000Y-96260000D01*
X116971000Y-98340000D02*
X116971000Y-99629000D01*
X117011000Y-94990000D02*
X117011000Y-96260000D01*
X117011000Y-98340000D02*
X117011000Y-99610000D01*
X117051000Y-95010000D02*
X117051000Y-96260000D01*
X117051000Y-98340000D02*
X117051000Y-99590000D01*
X117091000Y-95032000D02*
X117091000Y-96260000D01*
X117091000Y-98340000D02*
X117091000Y-99568000D01*
X117131000Y-95053000D02*
X117131000Y-96260000D01*
X117131000Y-98340000D02*
X117131000Y-99547000D01*
X117171000Y-95076000D02*
X117171000Y-96260000D01*
X117171000Y-98340000D02*
X117171000Y-99524000D01*
X117211000Y-95100000D02*
X117211000Y-96260000D01*
X117211000Y-98340000D02*
X117211000Y-99500000D01*
X117251000Y-95125000D02*
X117251000Y-96260000D01*
X117251000Y-98340000D02*
X117251000Y-99475000D01*
X117291000Y-95151000D02*
X117291000Y-96260000D01*
X117291000Y-98340000D02*
X117291000Y-99449000D01*
X117331000Y-95178000D02*
X117331000Y-96260000D01*
X117331000Y-98340000D02*
X117331000Y-99422000D01*
X117371000Y-95205000D02*
X117371000Y-96260000D01*
X117371000Y-98340000D02*
X117371000Y-99395000D01*
X117411000Y-95235000D02*
X117411000Y-96260000D01*
X117411000Y-98340000D02*
X117411000Y-99365000D01*
X117451000Y-95265000D02*
X117451000Y-96260000D01*
X117451000Y-98340000D02*
X117451000Y-99335000D01*
X117491000Y-95296000D02*
X117491000Y-96260000D01*
X117491000Y-98340000D02*
X117491000Y-99304000D01*
X117531000Y-95329000D02*
X117531000Y-96260000D01*
X117531000Y-98340000D02*
X117531000Y-99271000D01*
X117571000Y-95363000D02*
X117571000Y-96260000D01*
X117571000Y-98340000D02*
X117571000Y-99237000D01*
X117611000Y-95399000D02*
X117611000Y-96260000D01*
X117611000Y-98340000D02*
X117611000Y-99201000D01*
X117651000Y-95436000D02*
X117651000Y-96260000D01*
X117651000Y-98340000D02*
X117651000Y-99164000D01*
X117691000Y-95474000D02*
X117691000Y-96260000D01*
X117691000Y-98340000D02*
X117691000Y-99126000D01*
X117731000Y-95515000D02*
X117731000Y-96260000D01*
X117731000Y-98340000D02*
X117731000Y-99085000D01*
X117771000Y-95557000D02*
X117771000Y-96260000D01*
X117771000Y-98340000D02*
X117771000Y-99043000D01*
X117811000Y-95601000D02*
X117811000Y-96260000D01*
X117811000Y-98340000D02*
X117811000Y-98999000D01*
X117851000Y-95647000D02*
X117851000Y-96260000D01*
X117851000Y-98340000D02*
X117851000Y-98953000D01*
X117891000Y-95695000D02*
X117891000Y-96260000D01*
X117891000Y-98340000D02*
X117891000Y-98905000D01*
X117931000Y-95746000D02*
X117931000Y-96260000D01*
X117931000Y-98340000D02*
X117931000Y-98854000D01*
X117971000Y-95800000D02*
X117971000Y-96260000D01*
X117971000Y-98340000D02*
X117971000Y-98800000D01*
X118011000Y-95857000D02*
X118011000Y-96260000D01*
X118011000Y-98340000D02*
X118011000Y-98743000D01*
X118051000Y-95917000D02*
X118051000Y-96260000D01*
X118051000Y-98340000D02*
X118051000Y-98683000D01*
X118091000Y-95981000D02*
X118091000Y-96260000D01*
X118091000Y-98340000D02*
X118091000Y-98619000D01*
X118131000Y-96049000D02*
X118131000Y-96260000D01*
X118131000Y-98340000D02*
X118131000Y-98551000D01*
X118171000Y-96122000D02*
X118171000Y-98478000D01*
X118211000Y-96202000D02*
X118211000Y-98398000D01*
X118251000Y-96289000D02*
X118251000Y-98311000D01*
X118291000Y-96385000D02*
X118291000Y-98215000D01*
X118331000Y-96495000D02*
X118331000Y-98105000D01*
X118371000Y-96623000D02*
X118371000Y-97977000D01*
X118411000Y-96782000D02*
X118411000Y-97818000D01*
X118451000Y-97016000D02*
X118451000Y-97584000D01*
X113045225Y-95825000D02*
X113545225Y-95825000D01*
X113295225Y-95575000D02*
X113295225Y-96075000D01*
%TO.C,C2*%
X118204775Y-116625000D02*
X118204775Y-116125000D01*
X118454775Y-116375000D02*
X117954775Y-116375000D01*
X113049000Y-115184000D02*
X113049000Y-114616000D01*
X113089000Y-115418000D02*
X113089000Y-114382000D01*
X113129000Y-115577000D02*
X113129000Y-114223000D01*
X113169000Y-115705000D02*
X113169000Y-114095000D01*
X113209000Y-115815000D02*
X113209000Y-113985000D01*
X113249000Y-115911000D02*
X113249000Y-113889000D01*
X113289000Y-115998000D02*
X113289000Y-113802000D01*
X113329000Y-116078000D02*
X113329000Y-113722000D01*
X113369000Y-113860000D02*
X113369000Y-113649000D01*
X113369000Y-116151000D02*
X113369000Y-115940000D01*
X113409000Y-113860000D02*
X113409000Y-113581000D01*
X113409000Y-116219000D02*
X113409000Y-115940000D01*
X113449000Y-113860000D02*
X113449000Y-113517000D01*
X113449000Y-116283000D02*
X113449000Y-115940000D01*
X113489000Y-113860000D02*
X113489000Y-113457000D01*
X113489000Y-116343000D02*
X113489000Y-115940000D01*
X113529000Y-113860000D02*
X113529000Y-113400000D01*
X113529000Y-116400000D02*
X113529000Y-115940000D01*
X113569000Y-113860000D02*
X113569000Y-113346000D01*
X113569000Y-116454000D02*
X113569000Y-115940000D01*
X113609000Y-113860000D02*
X113609000Y-113295000D01*
X113609000Y-116505000D02*
X113609000Y-115940000D01*
X113649000Y-113860000D02*
X113649000Y-113247000D01*
X113649000Y-116553000D02*
X113649000Y-115940000D01*
X113689000Y-113860000D02*
X113689000Y-113201000D01*
X113689000Y-116599000D02*
X113689000Y-115940000D01*
X113729000Y-113860000D02*
X113729000Y-113157000D01*
X113729000Y-116643000D02*
X113729000Y-115940000D01*
X113769000Y-113860000D02*
X113769000Y-113115000D01*
X113769000Y-116685000D02*
X113769000Y-115940000D01*
X113809000Y-113860000D02*
X113809000Y-113074000D01*
X113809000Y-116726000D02*
X113809000Y-115940000D01*
X113849000Y-113860000D02*
X113849000Y-113036000D01*
X113849000Y-116764000D02*
X113849000Y-115940000D01*
X113889000Y-113860000D02*
X113889000Y-112999000D01*
X113889000Y-116801000D02*
X113889000Y-115940000D01*
X113929000Y-113860000D02*
X113929000Y-112963000D01*
X113929000Y-116837000D02*
X113929000Y-115940000D01*
X113969000Y-113860000D02*
X113969000Y-112929000D01*
X113969000Y-116871000D02*
X113969000Y-115940000D01*
X114009000Y-113860000D02*
X114009000Y-112896000D01*
X114009000Y-116904000D02*
X114009000Y-115940000D01*
X114049000Y-113860000D02*
X114049000Y-112865000D01*
X114049000Y-116935000D02*
X114049000Y-115940000D01*
X114089000Y-113860000D02*
X114089000Y-112835000D01*
X114089000Y-116965000D02*
X114089000Y-115940000D01*
X114129000Y-113860000D02*
X114129000Y-112805000D01*
X114129000Y-116995000D02*
X114129000Y-115940000D01*
X114169000Y-113860000D02*
X114169000Y-112778000D01*
X114169000Y-117022000D02*
X114169000Y-115940000D01*
X114209000Y-113860000D02*
X114209000Y-112751000D01*
X114209000Y-117049000D02*
X114209000Y-115940000D01*
X114249000Y-113860000D02*
X114249000Y-112725000D01*
X114249000Y-117075000D02*
X114249000Y-115940000D01*
X114289000Y-113860000D02*
X114289000Y-112700000D01*
X114289000Y-117100000D02*
X114289000Y-115940000D01*
X114329000Y-113860000D02*
X114329000Y-112676000D01*
X114329000Y-117124000D02*
X114329000Y-115940000D01*
X114369000Y-113860000D02*
X114369000Y-112653000D01*
X114369000Y-117147000D02*
X114369000Y-115940000D01*
X114409000Y-113860000D02*
X114409000Y-112632000D01*
X114409000Y-117168000D02*
X114409000Y-115940000D01*
X114449000Y-113860000D02*
X114449000Y-112610000D01*
X114449000Y-117190000D02*
X114449000Y-115940000D01*
X114489000Y-113860000D02*
X114489000Y-112590000D01*
X114489000Y-117210000D02*
X114489000Y-115940000D01*
X114529000Y-113860000D02*
X114529000Y-112571000D01*
X114529000Y-117229000D02*
X114529000Y-115940000D01*
X114569000Y-113860000D02*
X114569000Y-112552000D01*
X114569000Y-117248000D02*
X114569000Y-115940000D01*
X114609000Y-113860000D02*
X114609000Y-112535000D01*
X114609000Y-117265000D02*
X114609000Y-115940000D01*
X114649000Y-113860000D02*
X114649000Y-112518000D01*
X114649000Y-117282000D02*
X114649000Y-115940000D01*
X114689000Y-113860000D02*
X114689000Y-112502000D01*
X114689000Y-117298000D02*
X114689000Y-115940000D01*
X114729000Y-113860000D02*
X114729000Y-112486000D01*
X114729000Y-117314000D02*
X114729000Y-115940000D01*
X114769000Y-113860000D02*
X114769000Y-112472000D01*
X114769000Y-117328000D02*
X114769000Y-115940000D01*
X114809000Y-113860000D02*
X114809000Y-112458000D01*
X114809000Y-117342000D02*
X114809000Y-115940000D01*
X114849000Y-113860000D02*
X114849000Y-112445000D01*
X114849000Y-117355000D02*
X114849000Y-115940000D01*
X114889000Y-113860000D02*
X114889000Y-112432000D01*
X114889000Y-117368000D02*
X114889000Y-115940000D01*
X114929000Y-113860000D02*
X114929000Y-112420000D01*
X114929000Y-117380000D02*
X114929000Y-115940000D01*
X114970000Y-113860000D02*
X114970000Y-112409000D01*
X114970000Y-117391000D02*
X114970000Y-115940000D01*
X115010000Y-113860000D02*
X115010000Y-112399000D01*
X115010000Y-117401000D02*
X115010000Y-115940000D01*
X115050000Y-113860000D02*
X115050000Y-112389000D01*
X115050000Y-117411000D02*
X115050000Y-115940000D01*
X115090000Y-113860000D02*
X115090000Y-112380000D01*
X115090000Y-117420000D02*
X115090000Y-115940000D01*
X115130000Y-113860000D02*
X115130000Y-112372000D01*
X115130000Y-117428000D02*
X115130000Y-115940000D01*
X115170000Y-113860000D02*
X115170000Y-112364000D01*
X115170000Y-117436000D02*
X115170000Y-115940000D01*
X115210000Y-113860000D02*
X115210000Y-112357000D01*
X115210000Y-117443000D02*
X115210000Y-115940000D01*
X115250000Y-113860000D02*
X115250000Y-112350000D01*
X115250000Y-117450000D02*
X115250000Y-115940000D01*
X115290000Y-113860000D02*
X115290000Y-112344000D01*
X115290000Y-117456000D02*
X115290000Y-115940000D01*
X115330000Y-113860000D02*
X115330000Y-112339000D01*
X115330000Y-117461000D02*
X115330000Y-115940000D01*
X115370000Y-113860000D02*
X115370000Y-112335000D01*
X115370000Y-117465000D02*
X115370000Y-115940000D01*
X115410000Y-113860000D02*
X115410000Y-112331000D01*
X115410000Y-117469000D02*
X115410000Y-115940000D01*
X115450000Y-117473000D02*
X115450000Y-112327000D01*
X115490000Y-117476000D02*
X115490000Y-112324000D01*
X115530000Y-117478000D02*
X115530000Y-112322000D01*
X115570000Y-117479000D02*
X115570000Y-112321000D01*
X115610000Y-117480000D02*
X115610000Y-112320000D01*
X115650000Y-117480000D02*
X115650000Y-112320000D01*
X118270000Y-114900000D02*
G75*
G03*
X118270000Y-114900000I-2620000J0D01*
G01*
%TO.C,C3*%
X114930000Y-84380000D02*
X118970000Y-84380000D01*
X114930000Y-87220000D02*
X118970000Y-87220000D01*
X114930000Y-84380000D02*
X114930000Y-85005000D01*
X114930000Y-86595000D02*
X114930000Y-87220000D01*
X118970000Y-84380000D02*
X118970000Y-85005000D01*
X118970000Y-86595000D02*
X118970000Y-87220000D01*
%TO.C,C4*%
X115195000Y-69730000D02*
X115820000Y-69730000D01*
X112980000Y-69730000D02*
X113605000Y-69730000D01*
X115195000Y-73770000D02*
X115820000Y-73770000D01*
X112980000Y-73770000D02*
X113605000Y-73770000D01*
X115820000Y-73770000D02*
X115820000Y-69730000D01*
X112980000Y-73770000D02*
X112980000Y-69730000D01*
D14*
%TO.C,EN*%
X109048000Y-119048000D02*
X102952000Y-119048000D01*
X102952000Y-112952000D02*
X109048000Y-112952000D01*
%TO.C,GPIO 0*%
X81852000Y-83952000D02*
X87948000Y-83952000D01*
X87948000Y-90048000D02*
X81852000Y-90048000D01*
D13*
%TO.C,Q1*%
X101674144Y-101511961D02*
X102565098Y-102402916D01*
X102451961Y-100734144D02*
X101674144Y-101511961D01*
X103342916Y-101625098D02*
X102451961Y-100734144D01*
X102565326Y-102402629D02*
G75*
G03*
X103342916Y-101625098I3774674J-2997371D01*
G01*
%TO.C,R1*%
X104490000Y-99270000D02*
X104490000Y-96530000D01*
X104490000Y-96530000D02*
X97950000Y-96530000D01*
X97950000Y-96530000D02*
X97950000Y-99270000D01*
X97950000Y-99270000D02*
X104490000Y-99270000D01*
X105260000Y-97900000D02*
X104490000Y-97900000D01*
X97180000Y-97900000D02*
X97950000Y-97900000D01*
%TO.C,R2*%
X97700000Y-115720000D02*
X97700000Y-114950000D01*
X97700000Y-107640000D02*
X97700000Y-108410000D01*
X99070000Y-114950000D02*
X99070000Y-108410000D01*
X96330000Y-114950000D02*
X99070000Y-114950000D01*
X96330000Y-108410000D02*
X96330000Y-114950000D01*
X99070000Y-108410000D02*
X96330000Y-108410000D01*
%TO.C,U3*%
X119860000Y-72750000D02*
X119860000Y-70300000D01*
X116640000Y-70950000D02*
X116640000Y-72750000D01*
%TO.C,U4*%
X116590000Y-89500000D02*
X116590000Y-91300000D01*
X119810000Y-91300000D02*
X119810000Y-88850000D01*
%TD*%
%TO.C,REF\u002A\u002A*%
D11*
X131166666Y-117852380D02*
X130833333Y-117376190D01*
X130595238Y-117852380D02*
X130595238Y-116852380D01*
X130976190Y-116852380D01*
X131071428Y-116900000D01*
X131119047Y-116947619D01*
X131166666Y-117042857D01*
X131166666Y-117185714D01*
X131119047Y-117280952D01*
X131071428Y-117328571D01*
X130976190Y-117376190D01*
X130595238Y-117376190D01*
X131595238Y-117328571D02*
X131928571Y-117328571D01*
X132071428Y-117852380D02*
X131595238Y-117852380D01*
X131595238Y-116852380D01*
X132071428Y-116852380D01*
X132833333Y-117328571D02*
X132500000Y-117328571D01*
X132500000Y-117852380D02*
X132500000Y-116852380D01*
X132976190Y-116852380D01*
X133500000Y-116852380D02*
X133500000Y-117090476D01*
X133261904Y-116995238D02*
X133500000Y-117090476D01*
X133738095Y-116995238D01*
X133357142Y-117280952D02*
X133500000Y-117090476D01*
X133642857Y-117280952D01*
X134261904Y-116852380D02*
X134261904Y-117090476D01*
X134023809Y-116995238D02*
X134261904Y-117090476D01*
X134500000Y-116995238D01*
X134119047Y-117280952D02*
X134261904Y-117090476D01*
X134404761Y-117280952D01*
X131266666Y-68052380D02*
X130933333Y-67576190D01*
X130695238Y-68052380D02*
X130695238Y-67052380D01*
X131076190Y-67052380D01*
X131171428Y-67100000D01*
X131219047Y-67147619D01*
X131266666Y-67242857D01*
X131266666Y-67385714D01*
X131219047Y-67480952D01*
X131171428Y-67528571D01*
X131076190Y-67576190D01*
X130695238Y-67576190D01*
X131695238Y-67528571D02*
X132028571Y-67528571D01*
X132171428Y-68052380D02*
X131695238Y-68052380D01*
X131695238Y-67052380D01*
X132171428Y-67052380D01*
X132933333Y-67528571D02*
X132600000Y-67528571D01*
X132600000Y-68052380D02*
X132600000Y-67052380D01*
X133076190Y-67052380D01*
X133600000Y-67052380D02*
X133600000Y-67290476D01*
X133361904Y-67195238D02*
X133600000Y-67290476D01*
X133838095Y-67195238D01*
X133457142Y-67480952D02*
X133600000Y-67290476D01*
X133742857Y-67480952D01*
X134361904Y-67052380D02*
X134361904Y-67290476D01*
X134123809Y-67195238D02*
X134361904Y-67290476D01*
X134600000Y-67195238D01*
X134219047Y-67480952D02*
X134361904Y-67290476D01*
X134504761Y-67480952D01*
X70366666Y-117952380D02*
X70033333Y-117476190D01*
X69795238Y-117952380D02*
X69795238Y-116952380D01*
X70176190Y-116952380D01*
X70271428Y-117000000D01*
X70319047Y-117047619D01*
X70366666Y-117142857D01*
X70366666Y-117285714D01*
X70319047Y-117380952D01*
X70271428Y-117428571D01*
X70176190Y-117476190D01*
X69795238Y-117476190D01*
X70795238Y-117428571D02*
X71128571Y-117428571D01*
X71271428Y-117952380D02*
X70795238Y-117952380D01*
X70795238Y-116952380D01*
X71271428Y-116952380D01*
X72033333Y-117428571D02*
X71700000Y-117428571D01*
X71700000Y-117952380D02*
X71700000Y-116952380D01*
X72176190Y-116952380D01*
X72700000Y-116952380D02*
X72700000Y-117190476D01*
X72461904Y-117095238D02*
X72700000Y-117190476D01*
X72938095Y-117095238D01*
X72557142Y-117380952D02*
X72700000Y-117190476D01*
X72842857Y-117380952D01*
X73461904Y-116952380D02*
X73461904Y-117190476D01*
X73223809Y-117095238D02*
X73461904Y-117190476D01*
X73700000Y-117095238D01*
X73319047Y-117380952D02*
X73461904Y-117190476D01*
X73604761Y-117380952D01*
X70366666Y-68152380D02*
X70033333Y-67676190D01*
X69795238Y-68152380D02*
X69795238Y-67152380D01*
X70176190Y-67152380D01*
X70271428Y-67200000D01*
X70319047Y-67247619D01*
X70366666Y-67342857D01*
X70366666Y-67485714D01*
X70319047Y-67580952D01*
X70271428Y-67628571D01*
X70176190Y-67676190D01*
X69795238Y-67676190D01*
X70795238Y-67628571D02*
X71128571Y-67628571D01*
X71271428Y-68152380D02*
X70795238Y-68152380D01*
X70795238Y-67152380D01*
X71271428Y-67152380D01*
X72033333Y-67628571D02*
X71700000Y-67628571D01*
X71700000Y-68152380D02*
X71700000Y-67152380D01*
X72176190Y-67152380D01*
X72700000Y-67152380D02*
X72700000Y-67390476D01*
X72461904Y-67295238D02*
X72700000Y-67390476D01*
X72938095Y-67295238D01*
X72557142Y-67580952D02*
X72700000Y-67390476D01*
X72842857Y-67580952D01*
X73461904Y-67152380D02*
X73461904Y-67390476D01*
X73223809Y-67295238D02*
X73461904Y-67390476D01*
X73700000Y-67295238D01*
X73319047Y-67580952D02*
X73461904Y-67390476D01*
X73604761Y-67580952D01*
%TO.C,J3*%
X127052380Y-90733333D02*
X127766666Y-90733333D01*
X127909523Y-90780952D01*
X128004761Y-90876190D01*
X128052380Y-91019047D01*
X128052380Y-91114285D01*
X127052380Y-90352380D02*
X127052380Y-89733333D01*
X127433333Y-90066666D01*
X127433333Y-89923809D01*
X127480952Y-89828571D01*
X127528571Y-89780952D01*
X127623809Y-89733333D01*
X127861904Y-89733333D01*
X127957142Y-89780952D01*
X128004761Y-89828571D01*
X128052380Y-89923809D01*
X128052380Y-90209523D01*
X128004761Y-90304761D01*
X127957142Y-90352380D01*
%TO.C,J2*%
X127252380Y-72433333D02*
X127966666Y-72433333D01*
X128109523Y-72480952D01*
X128204761Y-72576190D01*
X128252380Y-72719047D01*
X128252380Y-72814285D01*
X127347619Y-72004761D02*
X127300000Y-71957142D01*
X127252380Y-71861904D01*
X127252380Y-71623809D01*
X127300000Y-71528571D01*
X127347619Y-71480952D01*
X127442857Y-71433333D01*
X127538095Y-71433333D01*
X127680952Y-71480952D01*
X128252380Y-72052380D01*
X128252380Y-71433333D01*
%TO.C,J4*%
X83726666Y-77592380D02*
X83726666Y-78306666D01*
X83679047Y-78449523D01*
X83583809Y-78544761D01*
X83440952Y-78592380D01*
X83345714Y-78592380D01*
X84631428Y-77925714D02*
X84631428Y-78592380D01*
X84393333Y-77544761D02*
X84155238Y-78259047D01*
X84774285Y-78259047D01*
%TO.C,J1*%
X104756666Y-77592380D02*
X104756666Y-78306666D01*
X104709047Y-78449523D01*
X104613809Y-78544761D01*
X104470952Y-78592380D01*
X104375714Y-78592380D01*
X105756666Y-78592380D02*
X105185238Y-78592380D01*
X105470952Y-78592380D02*
X105470952Y-77592380D01*
X105375714Y-77735238D01*
X105280476Y-77830476D01*
X105185238Y-77878095D01*
%TO.C,U1*%
X115638095Y-106452380D02*
X115638095Y-107261904D01*
X115685714Y-107357142D01*
X115733333Y-107404761D01*
X115828571Y-107452380D01*
X116019047Y-107452380D01*
X116114285Y-107404761D01*
X116161904Y-107357142D01*
X116209523Y-107261904D01*
X116209523Y-106452380D01*
X117209523Y-107452380D02*
X116638095Y-107452380D01*
X116923809Y-107452380D02*
X116923809Y-106452380D01*
X116828571Y-106595238D01*
X116733333Y-106690476D01*
X116638095Y-106738095D01*
%TO.C,U2*%
D16*
X82738095Y-99452380D02*
X82738095Y-100261904D01*
X82785714Y-100357142D01*
X82833333Y-100404761D01*
X82928571Y-100452380D01*
X83119047Y-100452380D01*
X83214285Y-100404761D01*
X83261904Y-100357142D01*
X83309523Y-100261904D01*
X83309523Y-99452380D01*
X83738095Y-99547619D02*
X83785714Y-99500000D01*
X83880952Y-99452380D01*
X84119047Y-99452380D01*
X84214285Y-99500000D01*
X84261904Y-99547619D01*
X84309523Y-99642857D01*
X84309523Y-99738095D01*
X84261904Y-99880952D01*
X83690476Y-100452380D01*
X84309523Y-100452380D01*
%TO.C,BZ1*%
D11*
X102519047Y-83128571D02*
X102661904Y-83176190D01*
X102709523Y-83223809D01*
X102757142Y-83319047D01*
X102757142Y-83461904D01*
X102709523Y-83557142D01*
X102661904Y-83604761D01*
X102566666Y-83652380D01*
X102185714Y-83652380D01*
X102185714Y-82652380D01*
X102519047Y-82652380D01*
X102614285Y-82700000D01*
X102661904Y-82747619D01*
X102709523Y-82842857D01*
X102709523Y-82938095D01*
X102661904Y-83033333D01*
X102614285Y-83080952D01*
X102519047Y-83128571D01*
X102185714Y-83128571D01*
X103090476Y-82652380D02*
X103757142Y-82652380D01*
X103090476Y-83652380D01*
X103757142Y-83652380D01*
X104661904Y-83652380D02*
X104090476Y-83652380D01*
X104376190Y-83652380D02*
X104376190Y-82652380D01*
X104280952Y-82795238D01*
X104185714Y-82890476D01*
X104090476Y-82938095D01*
X110611428Y-85870952D02*
X110611428Y-85109047D01*
X110992380Y-85490000D02*
X110230476Y-85490000D01*
%TO.C,C1*%
X112133333Y-99057142D02*
X112085714Y-99104761D01*
X111942857Y-99152380D01*
X111847619Y-99152380D01*
X111704761Y-99104761D01*
X111609523Y-99009523D01*
X111561904Y-98914285D01*
X111514285Y-98723809D01*
X111514285Y-98580952D01*
X111561904Y-98390476D01*
X111609523Y-98295238D01*
X111704761Y-98200000D01*
X111847619Y-98152380D01*
X111942857Y-98152380D01*
X112085714Y-98200000D01*
X112133333Y-98247619D01*
X113085714Y-99152380D02*
X112514285Y-99152380D01*
X112800000Y-99152380D02*
X112800000Y-98152380D01*
X112704761Y-98295238D01*
X112609523Y-98390476D01*
X112514285Y-98438095D01*
%TO.C,C2*%
X115483333Y-119007142D02*
X115435714Y-119054761D01*
X115292857Y-119102380D01*
X115197619Y-119102380D01*
X115054761Y-119054761D01*
X114959523Y-118959523D01*
X114911904Y-118864285D01*
X114864285Y-118673809D01*
X114864285Y-118530952D01*
X114911904Y-118340476D01*
X114959523Y-118245238D01*
X115054761Y-118150000D01*
X115197619Y-118102380D01*
X115292857Y-118102380D01*
X115435714Y-118150000D01*
X115483333Y-118197619D01*
X115864285Y-118197619D02*
X115911904Y-118150000D01*
X116007142Y-118102380D01*
X116245238Y-118102380D01*
X116340476Y-118150000D01*
X116388095Y-118197619D01*
X116435714Y-118292857D01*
X116435714Y-118388095D01*
X116388095Y-118530952D01*
X115816666Y-119102380D01*
X116435714Y-119102380D01*
%TO.C,C3*%
X116783333Y-83607142D02*
X116735714Y-83654761D01*
X116592857Y-83702380D01*
X116497619Y-83702380D01*
X116354761Y-83654761D01*
X116259523Y-83559523D01*
X116211904Y-83464285D01*
X116164285Y-83273809D01*
X116164285Y-83130952D01*
X116211904Y-82940476D01*
X116259523Y-82845238D01*
X116354761Y-82750000D01*
X116497619Y-82702380D01*
X116592857Y-82702380D01*
X116735714Y-82750000D01*
X116783333Y-82797619D01*
X117116666Y-82702380D02*
X117735714Y-82702380D01*
X117402380Y-83083333D01*
X117545238Y-83083333D01*
X117640476Y-83130952D01*
X117688095Y-83178571D01*
X117735714Y-83273809D01*
X117735714Y-83511904D01*
X117688095Y-83607142D01*
X117640476Y-83654761D01*
X117545238Y-83702380D01*
X117259523Y-83702380D01*
X117164285Y-83654761D01*
X117116666Y-83607142D01*
%TO.C,C4*%
X113583333Y-69107142D02*
X113535714Y-69154761D01*
X113392857Y-69202380D01*
X113297619Y-69202380D01*
X113154761Y-69154761D01*
X113059523Y-69059523D01*
X113011904Y-68964285D01*
X112964285Y-68773809D01*
X112964285Y-68630952D01*
X113011904Y-68440476D01*
X113059523Y-68345238D01*
X113154761Y-68250000D01*
X113297619Y-68202380D01*
X113392857Y-68202380D01*
X113535714Y-68250000D01*
X113583333Y-68297619D01*
X114440476Y-68535714D02*
X114440476Y-69202380D01*
X114202380Y-68154761D02*
X113964285Y-68869047D01*
X114583333Y-68869047D01*
%TO.C,EN*%
D15*
X105261904Y-112028571D02*
X105595238Y-112028571D01*
X105738095Y-112552380D02*
X105261904Y-112552380D01*
X105261904Y-111552380D01*
X105738095Y-111552380D01*
X106166666Y-112552380D02*
X106166666Y-111552380D01*
X106738095Y-112552380D01*
X106738095Y-111552380D01*
%TO.C,GPIO 0*%
X83142857Y-82400000D02*
X83047619Y-82352380D01*
X82904761Y-82352380D01*
X82761904Y-82400000D01*
X82666666Y-82495238D01*
X82619047Y-82590476D01*
X82571428Y-82780952D01*
X82571428Y-82923809D01*
X82619047Y-83114285D01*
X82666666Y-83209523D01*
X82761904Y-83304761D01*
X82904761Y-83352380D01*
X83000000Y-83352380D01*
X83142857Y-83304761D01*
X83190476Y-83257142D01*
X83190476Y-82923809D01*
X83000000Y-82923809D01*
X83619047Y-83352380D02*
X83619047Y-82352380D01*
X84000000Y-82352380D01*
X84095238Y-82400000D01*
X84142857Y-82447619D01*
X84190476Y-82542857D01*
X84190476Y-82685714D01*
X84142857Y-82780952D01*
X84095238Y-82828571D01*
X84000000Y-82876190D01*
X83619047Y-82876190D01*
X84619047Y-83352380D02*
X84619047Y-82352380D01*
X85285714Y-82352380D02*
X85476190Y-82352380D01*
X85571428Y-82400000D01*
X85666666Y-82495238D01*
X85714285Y-82685714D01*
X85714285Y-83019047D01*
X85666666Y-83209523D01*
X85571428Y-83304761D01*
X85476190Y-83352380D01*
X85285714Y-83352380D01*
X85190476Y-83304761D01*
X85095238Y-83209523D01*
X85047619Y-83019047D01*
X85047619Y-82685714D01*
X85095238Y-82495238D01*
X85190476Y-82400000D01*
X85285714Y-82352380D01*
X87095238Y-82352380D02*
X87190476Y-82352380D01*
X87285714Y-82400000D01*
X87333333Y-82447619D01*
X87380952Y-82542857D01*
X87428571Y-82733333D01*
X87428571Y-82971428D01*
X87380952Y-83161904D01*
X87333333Y-83257142D01*
X87285714Y-83304761D01*
X87190476Y-83352380D01*
X87095238Y-83352380D01*
X87000000Y-83304761D01*
X86952380Y-83257142D01*
X86904761Y-83161904D01*
X86857142Y-82971428D01*
X86857142Y-82733333D01*
X86904761Y-82542857D01*
X86952380Y-82447619D01*
X87000000Y-82400000D01*
X87095238Y-82352380D01*
%TO.C,Q1*%
D11*
X100404761Y-103547619D02*
X100309523Y-103500000D01*
X100214285Y-103404761D01*
X100071428Y-103261904D01*
X99976190Y-103214285D01*
X99880952Y-103214285D01*
X99928571Y-103452380D02*
X99833333Y-103404761D01*
X99738095Y-103309523D01*
X99690476Y-103119047D01*
X99690476Y-102785714D01*
X99738095Y-102595238D01*
X99833333Y-102500000D01*
X99928571Y-102452380D01*
X100119047Y-102452380D01*
X100214285Y-102500000D01*
X100309523Y-102595238D01*
X100357142Y-102785714D01*
X100357142Y-103119047D01*
X100309523Y-103309523D01*
X100214285Y-103404761D01*
X100119047Y-103452380D01*
X99928571Y-103452380D01*
X101309523Y-103452380D02*
X100738095Y-103452380D01*
X101023809Y-103452380D02*
X101023809Y-102452380D01*
X100928571Y-102595238D01*
X100833333Y-102690476D01*
X100738095Y-102738095D01*
%TO.C,R1*%
X99333333Y-95952380D02*
X99000000Y-95476190D01*
X98761904Y-95952380D02*
X98761904Y-94952380D01*
X99142857Y-94952380D01*
X99238095Y-95000000D01*
X99285714Y-95047619D01*
X99333333Y-95142857D01*
X99333333Y-95285714D01*
X99285714Y-95380952D01*
X99238095Y-95428571D01*
X99142857Y-95476190D01*
X98761904Y-95476190D01*
X100285714Y-95952380D02*
X99714285Y-95952380D01*
X100000000Y-95952380D02*
X100000000Y-94952380D01*
X99904761Y-95095238D01*
X99809523Y-95190476D01*
X99714285Y-95238095D01*
%TO.C,R2*%
X98252380Y-111846666D02*
X97776190Y-112180000D01*
X98252380Y-112418095D02*
X97252380Y-112418095D01*
X97252380Y-112037142D01*
X97300000Y-111941904D01*
X97347619Y-111894285D01*
X97442857Y-111846666D01*
X97585714Y-111846666D01*
X97680952Y-111894285D01*
X97728571Y-111941904D01*
X97776190Y-112037142D01*
X97776190Y-112418095D01*
X97347619Y-111465714D02*
X97300000Y-111418095D01*
X97252380Y-111322857D01*
X97252380Y-111084761D01*
X97300000Y-110989523D01*
X97347619Y-110941904D01*
X97442857Y-110894285D01*
X97538095Y-110894285D01*
X97680952Y-110941904D01*
X98252380Y-111513333D01*
X98252380Y-110894285D01*
%TO.C,U3*%
X117238095Y-74202380D02*
X117238095Y-75011904D01*
X117285714Y-75107142D01*
X117333333Y-75154761D01*
X117428571Y-75202380D01*
X117619047Y-75202380D01*
X117714285Y-75154761D01*
X117761904Y-75107142D01*
X117809523Y-75011904D01*
X117809523Y-74202380D01*
X118190476Y-74202380D02*
X118809523Y-74202380D01*
X118476190Y-74583333D01*
X118619047Y-74583333D01*
X118714285Y-74630952D01*
X118761904Y-74678571D01*
X118809523Y-74773809D01*
X118809523Y-75011904D01*
X118761904Y-75107142D01*
X118714285Y-75154761D01*
X118619047Y-75202380D01*
X118333333Y-75202380D01*
X118238095Y-75154761D01*
X118190476Y-75107142D01*
%TO.C,U4*%
X117238095Y-92702380D02*
X117238095Y-93511904D01*
X117285714Y-93607142D01*
X117333333Y-93654761D01*
X117428571Y-93702380D01*
X117619047Y-93702380D01*
X117714285Y-93654761D01*
X117761904Y-93607142D01*
X117809523Y-93511904D01*
X117809523Y-92702380D01*
X118714285Y-93035714D02*
X118714285Y-93702380D01*
X118476190Y-92654761D02*
X118238095Y-93369047D01*
X118857142Y-93369047D01*
%TD*%
M02*
