%TF.GenerationSoftware,KiCad,Pcbnew,(5.1.6)-1*%
%TF.CreationDate,2020-06-27T12:36:48+05:45*%
%TF.ProjectId,top,746f702e-6b69-4636-9164-5f7063625858,rev?*%
%TF.SameCoordinates,Original*%
%TF.FileFunction,Soldermask,Top*%
%TF.FilePolarity,Negative*%
%FSLAX46Y46*%
G04 Gerber Fmt 4.6, Leading zero omitted, Abs format (unit mm)*
G04 Created by KiCad (PCBNEW (5.1.6)-1) date 2020-06-27 12:36:48*
%MOMM*%
%LPD*%
G01*
G04 APERTURE LIST*
%TA.AperFunction,Profile*%
%ADD10C,0.050000*%
%TD*%
%ADD11C,3.300000*%
%ADD12R,1.400000X1.400000*%
%ADD13C,1.400000*%
%ADD14O,3.000000X2.000000*%
%ADD15R,1.840000X2.300000*%
%ADD16O,1.840000X2.300000*%
%ADD17R,1.600000X2.100000*%
%ADD18R,3.900000X2.100000*%
%ADD19R,2.100000X1.000000*%
%ADD20R,1.000000X2.100000*%
%ADD21R,1.430000X1.430000*%
%ADD22C,0.400000*%
%ADD23R,2.100000X2.100000*%
%ADD24C,2.100000*%
%ADD25C,1.700000*%
%ADD26R,1.700000X1.700000*%
%ADD27R,2.640000X1.370000*%
%ADD28O,1.700000X1.300000*%
%ADD29O,1.300000X1.300000*%
%ADD30O,1.700000X1.700000*%
%ADD31R,0.750000X1.160000*%
G04 APERTURE END LIST*
D10*
X67500000Y-61000000D02*
X136500000Y-61000000D01*
X67500000Y-124000000D02*
X67500000Y-61000000D01*
X136500000Y-124000000D02*
X67500000Y-124000000D01*
X136500000Y-61000000D02*
X136500000Y-124000000D01*
D11*
%TO.C,REF\u002A\u002A*%
X132500000Y-120000000D03*
%TD*%
%TO.C,REF\u002A\u002A*%
X132500000Y-65000000D03*
%TD*%
%TO.C,REF\u002A\u002A*%
X71500000Y-120000000D03*
%TD*%
%TO.C,REF\u002A\u002A*%
X71500000Y-65000000D03*
%TD*%
D12*
%TO.C,J3*%
X122050000Y-86900000D03*
D13*
X122050000Y-89400000D03*
X122050000Y-91400000D03*
X122050000Y-93900000D03*
D14*
X124800000Y-83830000D03*
X124800000Y-96970000D03*
%TD*%
D12*
%TO.C,J2*%
X122000000Y-68330000D03*
D13*
X122000000Y-70830000D03*
X122000000Y-72830000D03*
X122000000Y-75330000D03*
D14*
X124750000Y-65260000D03*
X124750000Y-78400000D03*
%TD*%
D15*
%TO.C,J4*%
X86600000Y-75600000D03*
D16*
X84060000Y-75600000D03*
X81520000Y-75600000D03*
%TD*%
D15*
%TO.C,J1*%
X108900000Y-75600000D03*
D16*
X106360000Y-75600000D03*
X103820000Y-75600000D03*
X101280000Y-75600000D03*
%TD*%
D17*
%TO.C,U1*%
X114000000Y-109750000D03*
X118600000Y-109750000D03*
X116300000Y-109750000D03*
D18*
X116300000Y-103450000D03*
%TD*%
D19*
%TO.C,U2*%
X92700000Y-111960000D03*
X92700000Y-110690000D03*
X92700000Y-109420000D03*
X92700000Y-108150000D03*
X92700000Y-106880000D03*
X92700000Y-105610000D03*
X92700000Y-104340000D03*
X92700000Y-103070000D03*
X92700000Y-101800000D03*
X92700000Y-100530000D03*
X92700000Y-99260000D03*
X92700000Y-97990000D03*
X92700000Y-96720000D03*
X92700000Y-95450000D03*
D20*
X89915000Y-94450000D03*
X88645000Y-94450000D03*
X87375000Y-94450000D03*
X86105000Y-94450000D03*
X84835000Y-94450000D03*
X83565000Y-94450000D03*
X82295000Y-94450000D03*
X81025000Y-94450000D03*
X79755000Y-94450000D03*
X78485000Y-94450000D03*
D19*
X75700000Y-95450000D03*
X75700000Y-96720000D03*
X75700000Y-97990000D03*
X75700000Y-99260000D03*
X75700000Y-100530000D03*
X75700000Y-101800000D03*
X75700000Y-103070000D03*
X75700000Y-104340000D03*
X75700000Y-105610000D03*
X75700000Y-106880000D03*
X75700000Y-108150000D03*
X75700000Y-109420000D03*
X75700000Y-110690000D03*
X75700000Y-111960000D03*
D21*
X87035000Y-106295000D03*
X85200000Y-106295000D03*
X83365000Y-106295000D03*
X87035000Y-104460000D03*
X85200000Y-104460000D03*
X83365000Y-104460000D03*
X87035000Y-102625000D03*
X85200000Y-102625000D03*
X83365000Y-102625000D03*
D22*
X86117500Y-106295000D03*
X84282500Y-106295000D03*
X87035000Y-105377500D03*
X85200000Y-105377500D03*
X83365000Y-105377500D03*
X86117500Y-104460000D03*
X84282500Y-104460000D03*
X87035000Y-103542500D03*
X85200000Y-103542500D03*
X83365000Y-103542500D03*
X86117500Y-102625000D03*
X84282500Y-102625000D03*
%TD*%
D23*
%TO.C,BZ1*%
X108000000Y-85500000D03*
D24*
X108000000Y-93100000D03*
%TD*%
D25*
%TO.C,C1*%
X117100000Y-97300000D03*
D26*
X114600000Y-97300000D03*
%TD*%
%TO.C,C2*%
X116900000Y-114900000D03*
D25*
X114400000Y-114900000D03*
%TD*%
%TO.C,C3*%
X118200000Y-85800000D03*
X115700000Y-85800000D03*
%TD*%
%TO.C,C4*%
X114400000Y-73000000D03*
X114400000Y-70500000D03*
%TD*%
D27*
%TO.C,EN*%
X101871000Y-113841000D03*
X101871000Y-118159000D03*
X110129000Y-118159000D03*
X110129000Y-113841000D03*
%TD*%
%TO.C,GPIO 0*%
X89029000Y-84841000D03*
X89029000Y-89159000D03*
X80771000Y-89159000D03*
X80771000Y-84841000D03*
%TD*%
D28*
%TO.C,Q1*%
X103800000Y-105400000D03*
D29*
X106340000Y-107940000D03*
X108880000Y-105400000D03*
%TD*%
D30*
%TO.C,R1*%
X96140000Y-97900000D03*
D25*
X106300000Y-97900000D03*
%TD*%
%TO.C,R2*%
X97700000Y-106600000D03*
D30*
X97700000Y-116760000D03*
%TD*%
D31*
%TO.C,U3*%
X119200000Y-70750000D03*
X118250000Y-70750000D03*
X117300000Y-70750000D03*
X117300000Y-72950000D03*
X119200000Y-72950000D03*
X118250000Y-72950000D03*
%TD*%
%TO.C,U4*%
X118200000Y-91500000D03*
X119150000Y-91500000D03*
X117250000Y-91500000D03*
X117250000Y-89300000D03*
X118200000Y-89300000D03*
X119150000Y-89300000D03*
%TD*%
M02*
