M48
; DRILL file {KiCad (5.1.6)-1} date 06/27/20 12:37:11
; FORMAT={-:-/ absolute / metric / decimal}
; #@! TF.CreationDate,2020-06-27T12:37:11+05:45
; #@! TF.GenerationSoftware,Kicad,Pcbnew,(5.1.6)-1
FMAT,2
METRIC
T1C0.200
T2C0.700
T3C0.800
T4C0.900
T5C1.000
T6C1.200
T7C1.300
T8C3.200
%
G90
G05
T1
X83.365Y-103.542
X83.365Y-105.377
X84.282Y-102.625
X84.282Y-104.46
X84.282Y-106.295
X85.2Y-103.542
X85.2Y-105.377
X86.117Y-102.625
X86.117Y-104.46
X86.117Y-106.295
X87.035Y-103.542
X87.035Y-105.377
T2
X103.8Y-105.4
X106.34Y-107.94
X108.88Y-105.4
T3
X115.7Y-85.8
X118.2Y-85.8
X97.7Y-106.6
X97.7Y-116.76
X114.4Y-70.5
X114.4Y-73.0
X96.14Y-97.9
X106.3Y-97.9
X114.6Y-97.3
X117.1Y-97.3
X114.4Y-114.9
X116.9Y-114.9
T4
X122.0Y-68.33
X122.0Y-70.83
X122.0Y-72.83
X122.0Y-75.33
X122.05Y-86.9
X122.05Y-89.4
X122.05Y-91.4
X122.05Y-93.9
T5
X108.0Y-85.5
X108.0Y-93.1
T6
X81.52Y-75.6
X84.06Y-75.6
X86.6Y-75.6
X101.28Y-75.6
X103.82Y-75.6
X106.36Y-75.6
X108.9Y-75.6
T8
X71.5Y-120.0
X71.5Y-65.0
X132.5Y-65.0
X132.5Y-120.0
T7
G00X124.25Y-65.26
M15
G01X125.25Y-65.26
M16
G05
G00X125.25Y-78.4
M15
G01X124.25Y-78.4
M16
G05
G00X124.3Y-83.83
M15
G01X125.3Y-83.83
M16
G05
G00X125.3Y-96.97
M15
G01X124.3Y-96.97
M16
G05
T0
M30
