M48
; DRILL file {KiCad (5.1.6)-1} date 06/27/20 12:28:50
; FORMAT={-:-/ absolute / metric / decimal}
; #@! TF.CreationDate,2020-06-27T12:28:50+05:45
; #@! TF.GenerationSoftware,Kicad,Pcbnew,(5.1.6)-1
FMAT,2
METRIC
T1C0.700
T2C0.750
T3C0.800
T4C0.900
T5C1.000
T6C1.100
T7C1.200
T8C1.300
T9C1.320
T10C1.600
T11C2.700
T12C3.200
%
G90
G05
T1
X101.97Y-69.325
X104.51Y-66.785
X107.05Y-69.325
T2
X99.735Y-60.875
X101.005Y-60.875
X102.275Y-60.875
X92.35Y-76.885
X92.35Y-78.155
X92.35Y-79.425
X88.185Y-72.5
X89.455Y-72.5
X90.725Y-72.5
T3
X134.25Y-115.0
X134.25Y-125.0
X147.25Y-115.0
X147.25Y-125.0
X111.75Y-137.0
X115.75Y-129.5
X105.45Y-51.525
X105.45Y-61.685
X117.54Y-64.675
X127.7Y-64.675
X120.63Y-131.92
X120.63Y-137.0
X128.25Y-131.92
X128.25Y-137.0
X139.175Y-81.275
X149.335Y-81.275
X95.79Y-76.575
X105.95Y-76.575
X98.39Y-108.325
X108.55Y-108.325
X120.375Y-71.175
X120.375Y-81.335
X143.135Y-86.075
X143.135Y-93.695
X145.675Y-86.075
X145.675Y-93.695
X124.7Y-68.85
X124.7Y-73.85
X76.625Y-76.95
X86.785Y-76.95
X141.925Y-97.075
X141.925Y-99.615
X141.925Y-104.695
X149.545Y-97.075
X149.545Y-99.615
X149.545Y-102.155
X149.545Y-104.695
X80.3Y-120.975
X87.8Y-124.975
X144.75Y-108.25
X149.75Y-108.25
X146.25Y-64.625
X148.25Y-64.625
X113.2Y-103.325
X123.36Y-103.325
X82.625Y-114.55
X90.125Y-118.55
X78.875Y-107.3
X86.375Y-111.3
X126.7Y-103.325
X136.86Y-103.325
T4
X92.275Y-108.65
X94.815Y-108.65
T5
X110.92Y-120.25
X116.0Y-120.25
X120.505Y-87.595
X120.505Y-97.755
X124.315Y-87.595
X124.315Y-97.755
X128.125Y-87.595
X128.125Y-97.755
X131.935Y-87.595
X131.935Y-97.755
X135.745Y-87.595
X135.745Y-97.755
X114.85Y-48.15
X114.85Y-60.15
X123.75Y-115.25
X123.75Y-120.25
X92.925Y-85.675
X104.925Y-85.675
X137.25Y-132.25
X137.25Y-137.25
X76.55Y-85.65
X88.55Y-85.65
X113.125Y-89.675
X113.125Y-99.675
X130.375Y-72.425
X135.375Y-72.425
T6
X125.715Y-81.175
X135.875Y-81.175
X96.04Y-79.95
X106.2Y-79.95
X108.95Y-51.365
X108.95Y-61.525
X113.14Y-107.625
X123.3Y-107.625
X77.3Y-80.125
X87.46Y-80.125
X127.55Y-107.625
X137.71Y-107.625
T7
X133.98Y-60.25
X136.52Y-60.25
X139.06Y-60.25
X141.6Y-60.25
T8
X76.55Y-97.85
X82.6Y-83.7
X88.6Y-97.9
X143.35Y-72.75
X148.35Y-72.75
X103.3Y-115.4
X103.3Y-137.9
X112.9Y-54.1
X127.05Y-60.15
X127.1Y-48.1
X92.925Y-97.875
X98.975Y-83.725
X104.975Y-97.925
T9
X83.6Y-134.125
X88.6Y-134.125
X93.6Y-134.125
X83.8Y-54.225
X88.8Y-54.225
X93.8Y-54.225
T10
X113.875Y-68.675
X113.875Y-81.375
T11
X103.3Y-126.65
T12
X72.0Y-48.5
X72.0Y-137.5
X149.0Y-48.5
X149.0Y-137.5
T0
M30
