%TF.GenerationSoftware,KiCad,Pcbnew,(5.1.6)-1*%
%TF.CreationDate,2020-06-27T12:28:24+05:45*%
%TF.ProjectId,plugin,706c7567-696e-42e6-9b69-6361645f7063,rev?*%
%TF.SameCoordinates,Original*%
%TF.FileFunction,Legend,Top*%
%TF.FilePolarity,Positive*%
%FSLAX46Y46*%
G04 Gerber Fmt 4.6, Leading zero omitted, Abs format (unit mm)*
G04 Created by KiCad (PCBNEW (5.1.6)-1) date 2020-06-27 12:28:24*
%MOMM*%
%LPD*%
G01*
G04 APERTURE LIST*
%TA.AperFunction,Profile*%
%ADD10C,0.050000*%
%TD*%
%ADD11C,0.150000*%
%ADD12C,0.120000*%
G04 APERTURE END LIST*
D10*
X141500000Y-90000000D02*
G75*
G02*
X141500000Y-89000000I0J500000D01*
G01*
X140250000Y-93499999D02*
G75*
G02*
X139250000Y-94500000I-1000000J-1D01*
G01*
X139250000Y-92500000D02*
G75*
G02*
X140250000Y-93500000I0J-1000000D01*
G01*
X150500000Y-89500000D02*
G75*
G02*
X150000000Y-90000000I-500000J0D01*
G01*
X150000000Y-89000000D02*
G75*
G02*
X150500000Y-89500000I0J-500000D01*
G01*
X150000000Y-90000000D02*
X141500000Y-90000000D01*
X141500000Y-89000000D02*
X150000000Y-89000000D01*
X111000000Y-92500000D02*
X139250000Y-92500000D01*
X139250000Y-94500000D02*
X111000000Y-94500000D01*
X110000000Y-93500000D02*
G75*
G02*
X111000000Y-92500000I1000000J0D01*
G01*
X111000000Y-94500000D02*
G75*
G02*
X110000000Y-93500000I0J1000000D01*
G01*
X153000000Y-44500000D02*
X153000000Y-141500000D01*
X68000000Y-44500000D02*
X153000000Y-44500000D01*
X68000000Y-141500000D02*
X68000000Y-44500000D01*
X153000000Y-141500000D02*
X68000000Y-141500000D01*
D11*
%TO.C,J3*%
X133472000Y-48448000D02*
X134488000Y-48448000D01*
X134488000Y-54668000D02*
X134488000Y-48448000D01*
X134488000Y-57970000D02*
X134488000Y-58862000D01*
X133472000Y-57970000D02*
X133472000Y-58862000D01*
X133726000Y-48194000D02*
X133472000Y-48448000D01*
X133472000Y-48448000D02*
X133472000Y-54668000D01*
X134488000Y-48448000D02*
X134234000Y-48194000D01*
X134234000Y-48194000D02*
X133726000Y-48194000D01*
X137028000Y-57970000D02*
X137028000Y-58862000D01*
X136012000Y-57970000D02*
X136012000Y-58862000D01*
X136012000Y-48448000D02*
X137028000Y-48448000D01*
X136266000Y-48194000D02*
X136012000Y-48448000D01*
X137028000Y-48448000D02*
X136774000Y-48194000D01*
X136774000Y-48194000D02*
X136266000Y-48194000D01*
X136012000Y-48448000D02*
X136012000Y-54668000D01*
X137028000Y-54668000D02*
X137028000Y-48448000D01*
X141092000Y-57970000D02*
X141092000Y-58862000D01*
X138552000Y-57970000D02*
X138552000Y-58862000D01*
X139568000Y-54668000D02*
X139568000Y-48448000D01*
X139568000Y-57970000D02*
X139568000Y-58862000D01*
X138552000Y-48448000D02*
X138552000Y-54668000D01*
X142108000Y-48448000D02*
X141092000Y-48448000D01*
X139568000Y-48448000D02*
X139314000Y-48194000D01*
X138552000Y-48448000D02*
X139568000Y-48448000D01*
X138806000Y-48194000D02*
X138552000Y-48448000D01*
X139314000Y-48194000D02*
X138806000Y-48194000D01*
X142108000Y-48448000D02*
X142108000Y-54668000D01*
X141854000Y-48194000D02*
X142108000Y-48448000D01*
X141600000Y-48194000D02*
X141854000Y-48194000D01*
X141346000Y-48194000D02*
X141600000Y-48194000D01*
X141092000Y-48448000D02*
X141346000Y-48194000D01*
X141092000Y-54668000D02*
X141092000Y-48448000D01*
X142108000Y-58862000D02*
X142108000Y-57970000D01*
X140838000Y-46670000D02*
X134742000Y-46670000D01*
X133980000Y-48194000D02*
X133980000Y-47432000D01*
X141600000Y-48194000D02*
X141600000Y-47432000D01*
D12*
X132710000Y-54670000D02*
X142870000Y-54670000D01*
X132710000Y-57970000D02*
X132710000Y-54670000D01*
X142870000Y-57970000D02*
X132710000Y-57970000D01*
X142870000Y-57970000D02*
X142870000Y-54670000D01*
D11*
X133980000Y-47432000D02*
G75*
G02*
X134742000Y-46670000I762000J0D01*
G01*
X140838000Y-46670000D02*
G75*
G02*
X141600000Y-47432000I0J-762000D01*
G01*
D12*
%TO.C,K2*%
X80750000Y-91750000D02*
X80750000Y-87750000D01*
X84350000Y-91750000D02*
X80750000Y-91750000D01*
X84350000Y-87750000D02*
X84350000Y-91750000D01*
X80750000Y-87750000D02*
X84350000Y-87750000D01*
X80750000Y-91750000D02*
X84350000Y-87750000D01*
X80750000Y-89750000D02*
X76550000Y-89750000D01*
X88550000Y-89750000D02*
X84350000Y-89750000D01*
X82550000Y-86350000D02*
X78950000Y-86350000D01*
X82550000Y-93150000D02*
X78950000Y-93150000D01*
X78950000Y-93150000D02*
X78950000Y-86350000D01*
X82550000Y-94650000D02*
X85050000Y-99250000D01*
X82550000Y-93150000D02*
X82550000Y-94650000D01*
X88550000Y-89750000D02*
X88550000Y-87250000D01*
X82550000Y-86350000D02*
X82550000Y-85550000D01*
X76550000Y-87250000D02*
X76550000Y-89750000D01*
X86800000Y-97850000D02*
X84300000Y-97850000D01*
X78400000Y-97850000D02*
X80850000Y-97850000D01*
X74800000Y-102100000D02*
X74800000Y-82300000D01*
X90400000Y-102100000D02*
X74800000Y-102100000D01*
X90400000Y-82300000D02*
X90400000Y-102100000D01*
X90400000Y-82300000D02*
X83800000Y-82300000D01*
X81400000Y-82300000D02*
X74800000Y-82300000D01*
%TO.C,T1*%
X128125000Y-85725000D02*
X139125000Y-85725000D01*
X139125000Y-85725000D02*
X139125000Y-99625000D01*
X139125000Y-99625000D02*
X117125000Y-99625000D01*
X117125000Y-99625000D02*
X117125000Y-85725000D01*
X117125000Y-85725000D02*
X128125000Y-85725000D01*
%TO.C,K3*%
X111500000Y-55300000D02*
X111500000Y-61900000D01*
X111500000Y-46300000D02*
X111500000Y-52900000D01*
X111500000Y-46300000D02*
X131300000Y-46300000D01*
X131300000Y-46300000D02*
X131300000Y-61900000D01*
X131300000Y-61900000D02*
X111500000Y-61900000D01*
X127050000Y-58300000D02*
X127050000Y-55850000D01*
X127050000Y-49900000D02*
X127050000Y-52400000D01*
X116450000Y-60150000D02*
X118950000Y-60150000D01*
X115550000Y-54150000D02*
X114750000Y-54150000D01*
X118950000Y-48150000D02*
X116450000Y-48150000D01*
X122350000Y-54150000D02*
X123850000Y-54150000D01*
X123850000Y-54150000D02*
X128450000Y-51650000D01*
X122350000Y-57750000D02*
X115550000Y-57750000D01*
X122350000Y-54150000D02*
X122350000Y-57750000D01*
X115550000Y-54150000D02*
X115550000Y-57750000D01*
X118950000Y-48150000D02*
X118950000Y-52350000D01*
X118950000Y-55950000D02*
X118950000Y-60150000D01*
X120950000Y-55950000D02*
X116950000Y-52350000D01*
X116950000Y-55950000D02*
X116950000Y-52350000D01*
X116950000Y-52350000D02*
X120950000Y-52350000D01*
X120950000Y-52350000D02*
X120950000Y-55950000D01*
X120950000Y-55950000D02*
X116950000Y-55950000D01*
%TO.C,K1*%
X97125000Y-91775000D02*
X97125000Y-87775000D01*
X100725000Y-91775000D02*
X97125000Y-91775000D01*
X100725000Y-87775000D02*
X100725000Y-91775000D01*
X97125000Y-87775000D02*
X100725000Y-87775000D01*
X97125000Y-91775000D02*
X100725000Y-87775000D01*
X97125000Y-89775000D02*
X92925000Y-89775000D01*
X104925000Y-89775000D02*
X100725000Y-89775000D01*
X98925000Y-86375000D02*
X95325000Y-86375000D01*
X98925000Y-93175000D02*
X95325000Y-93175000D01*
X95325000Y-93175000D02*
X95325000Y-86375000D01*
X98925000Y-94675000D02*
X101425000Y-99275000D01*
X98925000Y-93175000D02*
X98925000Y-94675000D01*
X104925000Y-89775000D02*
X104925000Y-87275000D01*
X98925000Y-86375000D02*
X98925000Y-85575000D01*
X92925000Y-87275000D02*
X92925000Y-89775000D01*
X103175000Y-97875000D02*
X100675000Y-97875000D01*
X94775000Y-97875000D02*
X97225000Y-97875000D01*
X91175000Y-102125000D02*
X91175000Y-82325000D01*
X106775000Y-102125000D02*
X91175000Y-102125000D01*
X106775000Y-82325000D02*
X106775000Y-102125000D01*
X106775000Y-82325000D02*
X100175000Y-82325000D01*
X97775000Y-82325000D02*
X91175000Y-82325000D01*
%TO.C,D4*%
X121670000Y-138900000D02*
X123440000Y-138900000D01*
X121670000Y-130300000D02*
X121670000Y-138900000D01*
X127210000Y-130300000D02*
X121670000Y-130300000D01*
X127210000Y-138900000D02*
X127210000Y-130300000D01*
X125440000Y-138900000D02*
X127210000Y-138900000D01*
X123440000Y-138900000D02*
G75*
G02*
X125440000Y-138900000I1000000J0D01*
G01*
%TO.C,F4*%
X117820000Y-120250000D02*
G75*
G03*
X117820000Y-120250000I-4360000J0D01*
G01*
%TO.C,F1*%
X98390000Y-138010000D02*
X101550000Y-138010000D01*
X105050000Y-138010000D02*
X108210000Y-138010000D01*
X105050000Y-115290000D02*
X108210000Y-115290000D01*
X108210000Y-115290000D02*
X108210000Y-138010000D01*
X98390000Y-115290000D02*
X98390000Y-138010000D01*
X98390000Y-115290000D02*
X101550000Y-115290000D01*
%TO.C,U2*%
X147005000Y-92535000D02*
X147005000Y-90885000D01*
X141805000Y-92535000D02*
X147005000Y-92535000D01*
X141805000Y-87235000D02*
X141805000Y-92535000D01*
X147005000Y-87235000D02*
X141805000Y-87235000D01*
X147005000Y-88885000D02*
X147005000Y-87235000D01*
X147005000Y-90885000D02*
G75*
G02*
X147005000Y-88885000I0J1000000D01*
G01*
%TO.C,U1*%
X147985000Y-95745000D02*
X146735000Y-95745000D01*
X147985000Y-106025000D02*
X147985000Y-95745000D01*
X143485000Y-106025000D02*
X147985000Y-106025000D01*
X143485000Y-95745000D02*
X143485000Y-106025000D01*
X144735000Y-95745000D02*
X143485000Y-95745000D01*
X146735000Y-95745000D02*
G75*
G02*
X144735000Y-95745000I-1000000J0D01*
G01*
D11*
%TO.C,RV4*%
X110000000Y-127250000D02*
X110000000Y-139250000D01*
X117500000Y-127250000D02*
X117500000Y-139250000D01*
X117500000Y-139250000D02*
X110000000Y-139250000D01*
X117500000Y-127250000D02*
X110000000Y-127250000D01*
%TO.C,RV3*%
X88625000Y-105550000D02*
X76625000Y-105550000D01*
X88625000Y-113050000D02*
X76625000Y-113050000D01*
X76625000Y-113050000D02*
X76625000Y-105550000D01*
X88625000Y-113050000D02*
X88625000Y-105550000D01*
%TO.C,RV2*%
X90050000Y-119225000D02*
X78050000Y-119225000D01*
X90050000Y-126725000D02*
X78050000Y-126725000D01*
X78050000Y-126725000D02*
X78050000Y-119225000D01*
X90050000Y-126725000D02*
X90050000Y-119225000D01*
%TO.C,RV1*%
X92375000Y-112800000D02*
X80375000Y-112800000D01*
X92375000Y-120300000D02*
X80375000Y-120300000D01*
X80375000Y-120300000D02*
X80375000Y-112800000D01*
X92375000Y-120300000D02*
X92375000Y-112800000D01*
D12*
%TO.C,R9*%
X121745000Y-72985000D02*
X119005000Y-72985000D01*
X119005000Y-72985000D02*
X119005000Y-79525000D01*
X119005000Y-79525000D02*
X121745000Y-79525000D01*
X121745000Y-79525000D02*
X121745000Y-72985000D01*
X120375000Y-72215000D02*
X120375000Y-72985000D01*
X120375000Y-80295000D02*
X120375000Y-79525000D01*
%TO.C,R8*%
X148295000Y-81275000D02*
X147525000Y-81275000D01*
X140215000Y-81275000D02*
X140985000Y-81275000D01*
X147525000Y-79905000D02*
X140985000Y-79905000D01*
X147525000Y-82645000D02*
X147525000Y-79905000D01*
X140985000Y-82645000D02*
X147525000Y-82645000D01*
X140985000Y-79905000D02*
X140985000Y-82645000D01*
%TO.C,R7*%
X135820000Y-103325000D02*
X135050000Y-103325000D01*
X127740000Y-103325000D02*
X128510000Y-103325000D01*
X135050000Y-101955000D02*
X128510000Y-101955000D01*
X135050000Y-104695000D02*
X135050000Y-101955000D01*
X128510000Y-104695000D02*
X135050000Y-104695000D01*
X128510000Y-101955000D02*
X128510000Y-104695000D01*
%TO.C,R6*%
X122320000Y-103325000D02*
X121550000Y-103325000D01*
X114240000Y-103325000D02*
X115010000Y-103325000D01*
X121550000Y-101955000D02*
X115010000Y-101955000D01*
X121550000Y-104695000D02*
X121550000Y-101955000D01*
X115010000Y-104695000D02*
X121550000Y-104695000D01*
X115010000Y-101955000D02*
X115010000Y-104695000D01*
%TO.C,R5*%
X118580000Y-64675000D02*
X119350000Y-64675000D01*
X126660000Y-64675000D02*
X125890000Y-64675000D01*
X119350000Y-66045000D02*
X125890000Y-66045000D01*
X119350000Y-63305000D02*
X119350000Y-66045000D01*
X125890000Y-63305000D02*
X119350000Y-63305000D01*
X125890000Y-66045000D02*
X125890000Y-63305000D01*
%TO.C,R4*%
X106820000Y-53335000D02*
X104080000Y-53335000D01*
X104080000Y-53335000D02*
X104080000Y-59875000D01*
X104080000Y-59875000D02*
X106820000Y-59875000D01*
X106820000Y-59875000D02*
X106820000Y-53335000D01*
X105450000Y-52565000D02*
X105450000Y-53335000D01*
X105450000Y-60645000D02*
X105450000Y-59875000D01*
%TO.C,R3*%
X85745000Y-76950000D02*
X84975000Y-76950000D01*
X77665000Y-76950000D02*
X78435000Y-76950000D01*
X84975000Y-75580000D02*
X78435000Y-75580000D01*
X84975000Y-78320000D02*
X84975000Y-75580000D01*
X78435000Y-78320000D02*
X84975000Y-78320000D01*
X78435000Y-75580000D02*
X78435000Y-78320000D01*
%TO.C,R2*%
X96830000Y-76575000D02*
X97600000Y-76575000D01*
X104910000Y-76575000D02*
X104140000Y-76575000D01*
X97600000Y-77945000D02*
X104140000Y-77945000D01*
X97600000Y-75205000D02*
X97600000Y-77945000D01*
X104140000Y-75205000D02*
X97600000Y-75205000D01*
X104140000Y-77945000D02*
X104140000Y-75205000D01*
%TO.C,R1*%
X99430000Y-108325000D02*
X100200000Y-108325000D01*
X107510000Y-108325000D02*
X106740000Y-108325000D01*
X100200000Y-109695000D02*
X106740000Y-109695000D01*
X100200000Y-106955000D02*
X100200000Y-109695000D01*
X106740000Y-106955000D02*
X100200000Y-106955000D01*
X106740000Y-109695000D02*
X106740000Y-106955000D01*
%TO.C,Q4*%
X109175856Y-73213039D02*
X108284902Y-72322084D01*
X108398039Y-73990856D02*
X109175856Y-73213039D01*
X107507084Y-73099902D02*
X108398039Y-73990856D01*
X108284674Y-72322371D02*
G75*
G03*
X107507084Y-73099902I-3774674J2997371D01*
G01*
%TO.C,Q3*%
X102805000Y-59025000D02*
X99205000Y-59025000D01*
X102843478Y-59036522D02*
G75*
G02*
X101005000Y-63475000I-1838478J-1838478D01*
G01*
X99166522Y-59036522D02*
G75*
G03*
X101005000Y-63475000I1838478J-1838478D01*
G01*
%TO.C,Q2*%
X91255000Y-70650000D02*
X87655000Y-70650000D01*
X87616522Y-70661522D02*
G75*
G03*
X89455000Y-75100000I1838478J-1838478D01*
G01*
X91293478Y-70661522D02*
G75*
G02*
X89455000Y-75100000I-1838478J-1838478D01*
G01*
%TO.C,Q1*%
X94200000Y-79955000D02*
X94200000Y-76355000D01*
X94188478Y-76316522D02*
G75*
G03*
X89750000Y-78155000I-1838478J-1838478D01*
G01*
X94188478Y-79993478D02*
G75*
G02*
X89750000Y-78155000I-1838478J1838478D01*
G01*
%TO.C,NE1*%
X90985000Y-107105000D02*
X90985000Y-110195000D01*
X96045000Y-108650000D02*
G75*
G03*
X96045000Y-108650000I-2500000J0D01*
G01*
X96535000Y-108649538D02*
G75*
G02*
X90985000Y-110194830I-2990000J-462D01*
G01*
X96535000Y-108650462D02*
G75*
G03*
X90985000Y-107105170I-2990000J462D01*
G01*
%TO.C,L1*%
X150320000Y-72750000D02*
G75*
G03*
X150320000Y-72750000I-4470000J0D01*
G01*
%TO.C,J2*%
X80550000Y-60525000D02*
X96450000Y-60525000D01*
X80550000Y-55475000D02*
X80550000Y-60525000D01*
X81050000Y-55725000D02*
X80550000Y-55475000D01*
X81050000Y-50325000D02*
X81050000Y-55725000D01*
X80550000Y-50575000D02*
X81050000Y-50325000D01*
X80550000Y-48575000D02*
X80550000Y-50575000D01*
X81050000Y-48875000D02*
X80550000Y-48575000D01*
X81050000Y-47925000D02*
X81050000Y-48875000D01*
X96450000Y-47925000D02*
X81050000Y-47925000D01*
X96450000Y-60525000D02*
X96450000Y-47925000D01*
%TO.C,J1*%
X80950000Y-127825000D02*
X80950000Y-140425000D01*
X80950000Y-140425000D02*
X96350000Y-140425000D01*
X96350000Y-140425000D02*
X96350000Y-139475000D01*
X96350000Y-139475000D02*
X96850000Y-139775000D01*
X96850000Y-139775000D02*
X96850000Y-137775000D01*
X96850000Y-137775000D02*
X96350000Y-138025000D01*
X96350000Y-138025000D02*
X96350000Y-132625000D01*
X96350000Y-132625000D02*
X96850000Y-132875000D01*
X96850000Y-132875000D02*
X96850000Y-127825000D01*
X96850000Y-127825000D02*
X80950000Y-127825000D01*
%TO.C,FL1*%
X151050000Y-128400000D02*
X151050000Y-111600000D01*
X151050000Y-111600000D02*
X130450000Y-111600000D01*
X130450000Y-111600000D02*
X130450000Y-128400000D01*
X130450000Y-128400000D02*
X151050000Y-128400000D01*
%TO.C,D8*%
X115715000Y-70155000D02*
X116595000Y-70155000D01*
X116595000Y-70155000D02*
X116595000Y-79895000D01*
X116595000Y-79895000D02*
X115715000Y-79895000D01*
X112035000Y-70155000D02*
X111155000Y-70155000D01*
X111155000Y-70155000D02*
X111155000Y-79895000D01*
X111155000Y-79895000D02*
X112035000Y-79895000D01*
X116595000Y-71700000D02*
X111155000Y-71700000D01*
X116595000Y-71820000D02*
X111155000Y-71820000D01*
X116595000Y-71580000D02*
X111155000Y-71580000D01*
%TO.C,D7*%
X133515000Y-82645000D02*
X133515000Y-79705000D01*
X133515000Y-79705000D02*
X128075000Y-79705000D01*
X128075000Y-79705000D02*
X128075000Y-82645000D01*
X128075000Y-82645000D02*
X133515000Y-82645000D01*
X134535000Y-81175000D02*
X133515000Y-81175000D01*
X127055000Y-81175000D02*
X128075000Y-81175000D01*
X132615000Y-82645000D02*
X132615000Y-79705000D01*
X132495000Y-82645000D02*
X132495000Y-79705000D01*
X132735000Y-82645000D02*
X132735000Y-79705000D01*
%TO.C,D6*%
X130690000Y-106155000D02*
X130690000Y-109095000D01*
X130930000Y-106155000D02*
X130930000Y-109095000D01*
X130810000Y-106155000D02*
X130810000Y-109095000D01*
X136370000Y-107625000D02*
X135350000Y-107625000D01*
X128890000Y-107625000D02*
X129910000Y-107625000D01*
X135350000Y-106155000D02*
X129910000Y-106155000D01*
X135350000Y-109095000D02*
X135350000Y-106155000D01*
X129910000Y-109095000D02*
X135350000Y-109095000D01*
X129910000Y-106155000D02*
X129910000Y-109095000D01*
%TO.C,D5*%
X120160000Y-109095000D02*
X120160000Y-106155000D01*
X119920000Y-109095000D02*
X119920000Y-106155000D01*
X120040000Y-109095000D02*
X120040000Y-106155000D01*
X114480000Y-107625000D02*
X115500000Y-107625000D01*
X121960000Y-107625000D02*
X120940000Y-107625000D01*
X115500000Y-109095000D02*
X120940000Y-109095000D01*
X115500000Y-106155000D02*
X115500000Y-109095000D01*
X120940000Y-106155000D02*
X115500000Y-106155000D01*
X120940000Y-109095000D02*
X120940000Y-106155000D01*
%TO.C,D3*%
X107480000Y-59165000D02*
X110420000Y-59165000D01*
X110420000Y-59165000D02*
X110420000Y-53725000D01*
X110420000Y-53725000D02*
X107480000Y-53725000D01*
X107480000Y-53725000D02*
X107480000Y-59165000D01*
X108950000Y-60185000D02*
X108950000Y-59165000D01*
X108950000Y-52705000D02*
X108950000Y-53725000D01*
X107480000Y-58265000D02*
X110420000Y-58265000D01*
X107480000Y-58145000D02*
X110420000Y-58145000D01*
X107480000Y-58385000D02*
X110420000Y-58385000D01*
%TO.C,D2*%
X80440000Y-78655000D02*
X80440000Y-81595000D01*
X80680000Y-78655000D02*
X80680000Y-81595000D01*
X80560000Y-78655000D02*
X80560000Y-81595000D01*
X86120000Y-80125000D02*
X85100000Y-80125000D01*
X78640000Y-80125000D02*
X79660000Y-80125000D01*
X85100000Y-78655000D02*
X79660000Y-78655000D01*
X85100000Y-81595000D02*
X85100000Y-78655000D01*
X79660000Y-81595000D02*
X85100000Y-81595000D01*
X79660000Y-78655000D02*
X79660000Y-81595000D01*
%TO.C,D1*%
X103060000Y-81420000D02*
X103060000Y-78480000D01*
X102820000Y-81420000D02*
X102820000Y-78480000D01*
X102940000Y-81420000D02*
X102940000Y-78480000D01*
X97380000Y-79950000D02*
X98400000Y-79950000D01*
X104860000Y-79950000D02*
X103840000Y-79950000D01*
X98400000Y-81420000D02*
X103840000Y-81420000D01*
X98400000Y-78480000D02*
X98400000Y-81420000D01*
X103840000Y-78480000D02*
X98400000Y-78480000D01*
X103840000Y-81420000D02*
X103840000Y-78480000D01*
%TO.C,C7*%
X149804775Y-66350000D02*
X149804775Y-65850000D01*
X150054775Y-66100000D02*
X149554775Y-66100000D01*
X144649000Y-64909000D02*
X144649000Y-64341000D01*
X144689000Y-65143000D02*
X144689000Y-64107000D01*
X144729000Y-65302000D02*
X144729000Y-63948000D01*
X144769000Y-65430000D02*
X144769000Y-63820000D01*
X144809000Y-65540000D02*
X144809000Y-63710000D01*
X144849000Y-65636000D02*
X144849000Y-63614000D01*
X144889000Y-65723000D02*
X144889000Y-63527000D01*
X144929000Y-65803000D02*
X144929000Y-63447000D01*
X144969000Y-65876000D02*
X144969000Y-63374000D01*
X145009000Y-65944000D02*
X145009000Y-63306000D01*
X145049000Y-66008000D02*
X145049000Y-63242000D01*
X145089000Y-66068000D02*
X145089000Y-63182000D01*
X145129000Y-66125000D02*
X145129000Y-63125000D01*
X145169000Y-66179000D02*
X145169000Y-63071000D01*
X145209000Y-66230000D02*
X145209000Y-63020000D01*
X145249000Y-63585000D02*
X145249000Y-62972000D01*
X145249000Y-66278000D02*
X145249000Y-65665000D01*
X145289000Y-63585000D02*
X145289000Y-62926000D01*
X145289000Y-66324000D02*
X145289000Y-65665000D01*
X145329000Y-63585000D02*
X145329000Y-62882000D01*
X145329000Y-66368000D02*
X145329000Y-65665000D01*
X145369000Y-63585000D02*
X145369000Y-62840000D01*
X145369000Y-66410000D02*
X145369000Y-65665000D01*
X145409000Y-63585000D02*
X145409000Y-62799000D01*
X145409000Y-66451000D02*
X145409000Y-65665000D01*
X145449000Y-63585000D02*
X145449000Y-62761000D01*
X145449000Y-66489000D02*
X145449000Y-65665000D01*
X145489000Y-63585000D02*
X145489000Y-62724000D01*
X145489000Y-66526000D02*
X145489000Y-65665000D01*
X145529000Y-63585000D02*
X145529000Y-62688000D01*
X145529000Y-66562000D02*
X145529000Y-65665000D01*
X145569000Y-63585000D02*
X145569000Y-62654000D01*
X145569000Y-66596000D02*
X145569000Y-65665000D01*
X145609000Y-63585000D02*
X145609000Y-62621000D01*
X145609000Y-66629000D02*
X145609000Y-65665000D01*
X145649000Y-63585000D02*
X145649000Y-62590000D01*
X145649000Y-66660000D02*
X145649000Y-65665000D01*
X145689000Y-63585000D02*
X145689000Y-62560000D01*
X145689000Y-66690000D02*
X145689000Y-65665000D01*
X145729000Y-63585000D02*
X145729000Y-62530000D01*
X145729000Y-66720000D02*
X145729000Y-65665000D01*
X145769000Y-63585000D02*
X145769000Y-62503000D01*
X145769000Y-66747000D02*
X145769000Y-65665000D01*
X145809000Y-63585000D02*
X145809000Y-62476000D01*
X145809000Y-66774000D02*
X145809000Y-65665000D01*
X145849000Y-63585000D02*
X145849000Y-62450000D01*
X145849000Y-66800000D02*
X145849000Y-65665000D01*
X145889000Y-63585000D02*
X145889000Y-62425000D01*
X145889000Y-66825000D02*
X145889000Y-65665000D01*
X145929000Y-63585000D02*
X145929000Y-62401000D01*
X145929000Y-66849000D02*
X145929000Y-65665000D01*
X145969000Y-63585000D02*
X145969000Y-62378000D01*
X145969000Y-66872000D02*
X145969000Y-65665000D01*
X146009000Y-63585000D02*
X146009000Y-62357000D01*
X146009000Y-66893000D02*
X146009000Y-65665000D01*
X146049000Y-63585000D02*
X146049000Y-62335000D01*
X146049000Y-66915000D02*
X146049000Y-65665000D01*
X146089000Y-63585000D02*
X146089000Y-62315000D01*
X146089000Y-66935000D02*
X146089000Y-65665000D01*
X146129000Y-63585000D02*
X146129000Y-62296000D01*
X146129000Y-66954000D02*
X146129000Y-65665000D01*
X146169000Y-63585000D02*
X146169000Y-62277000D01*
X146169000Y-66973000D02*
X146169000Y-65665000D01*
X146209000Y-63585000D02*
X146209000Y-62260000D01*
X146209000Y-66990000D02*
X146209000Y-65665000D01*
X146249000Y-63585000D02*
X146249000Y-62243000D01*
X146249000Y-67007000D02*
X146249000Y-65665000D01*
X146289000Y-63585000D02*
X146289000Y-62227000D01*
X146289000Y-67023000D02*
X146289000Y-65665000D01*
X146329000Y-63585000D02*
X146329000Y-62211000D01*
X146329000Y-67039000D02*
X146329000Y-65665000D01*
X146369000Y-63585000D02*
X146369000Y-62197000D01*
X146369000Y-67053000D02*
X146369000Y-65665000D01*
X146409000Y-63585000D02*
X146409000Y-62183000D01*
X146409000Y-67067000D02*
X146409000Y-65665000D01*
X146449000Y-63585000D02*
X146449000Y-62170000D01*
X146449000Y-67080000D02*
X146449000Y-65665000D01*
X146489000Y-63585000D02*
X146489000Y-62157000D01*
X146489000Y-67093000D02*
X146489000Y-65665000D01*
X146529000Y-63585000D02*
X146529000Y-62145000D01*
X146529000Y-67105000D02*
X146529000Y-65665000D01*
X146570000Y-63585000D02*
X146570000Y-62134000D01*
X146570000Y-67116000D02*
X146570000Y-65665000D01*
X146610000Y-63585000D02*
X146610000Y-62124000D01*
X146610000Y-67126000D02*
X146610000Y-65665000D01*
X146650000Y-63585000D02*
X146650000Y-62114000D01*
X146650000Y-67136000D02*
X146650000Y-65665000D01*
X146690000Y-63585000D02*
X146690000Y-62105000D01*
X146690000Y-67145000D02*
X146690000Y-65665000D01*
X146730000Y-63585000D02*
X146730000Y-62097000D01*
X146730000Y-67153000D02*
X146730000Y-65665000D01*
X146770000Y-63585000D02*
X146770000Y-62089000D01*
X146770000Y-67161000D02*
X146770000Y-65665000D01*
X146810000Y-63585000D02*
X146810000Y-62082000D01*
X146810000Y-67168000D02*
X146810000Y-65665000D01*
X146850000Y-63585000D02*
X146850000Y-62075000D01*
X146850000Y-67175000D02*
X146850000Y-65665000D01*
X146890000Y-63585000D02*
X146890000Y-62069000D01*
X146890000Y-67181000D02*
X146890000Y-65665000D01*
X146930000Y-63585000D02*
X146930000Y-62064000D01*
X146930000Y-67186000D02*
X146930000Y-65665000D01*
X146970000Y-63585000D02*
X146970000Y-62060000D01*
X146970000Y-67190000D02*
X146970000Y-65665000D01*
X147010000Y-63585000D02*
X147010000Y-62056000D01*
X147010000Y-67194000D02*
X147010000Y-65665000D01*
X147050000Y-63585000D02*
X147050000Y-62052000D01*
X147050000Y-67198000D02*
X147050000Y-65665000D01*
X147090000Y-63585000D02*
X147090000Y-62049000D01*
X147090000Y-67201000D02*
X147090000Y-65665000D01*
X147130000Y-63585000D02*
X147130000Y-62047000D01*
X147130000Y-67203000D02*
X147130000Y-65665000D01*
X147170000Y-63585000D02*
X147170000Y-62046000D01*
X147170000Y-67204000D02*
X147170000Y-65665000D01*
X147210000Y-67205000D02*
X147210000Y-65665000D01*
X147210000Y-63585000D02*
X147210000Y-62045000D01*
X147250000Y-67205000D02*
X147250000Y-65665000D01*
X147250000Y-63585000D02*
X147250000Y-62045000D01*
X149870000Y-64625000D02*
G75*
G03*
X149870000Y-64625000I-2620000J0D01*
G01*
%TO.C,C6*%
X137854646Y-75800000D02*
X137854646Y-74800000D01*
X138354646Y-75300000D02*
X137354646Y-75300000D01*
X127794000Y-73024000D02*
X127794000Y-71826000D01*
X127834000Y-73287000D02*
X127834000Y-71563000D01*
X127874000Y-73487000D02*
X127874000Y-71363000D01*
X127914000Y-73655000D02*
X127914000Y-71195000D01*
X127954000Y-73803000D02*
X127954000Y-71047000D01*
X127994000Y-73935000D02*
X127994000Y-70915000D01*
X128034000Y-74055000D02*
X128034000Y-70795000D01*
X128074000Y-74167000D02*
X128074000Y-70683000D01*
X128114000Y-74271000D02*
X128114000Y-70579000D01*
X128154000Y-74369000D02*
X128154000Y-70481000D01*
X128194000Y-74462000D02*
X128194000Y-70388000D01*
X128234000Y-74550000D02*
X128234000Y-70300000D01*
X128274000Y-74634000D02*
X128274000Y-70216000D01*
X128314000Y-74714000D02*
X128314000Y-70136000D01*
X128354000Y-74790000D02*
X128354000Y-70060000D01*
X128394000Y-74864000D02*
X128394000Y-69986000D01*
X128434000Y-74935000D02*
X128434000Y-69915000D01*
X128474000Y-75004000D02*
X128474000Y-69846000D01*
X128514000Y-75070000D02*
X128514000Y-69780000D01*
X128554000Y-75134000D02*
X128554000Y-69716000D01*
X128594000Y-75195000D02*
X128594000Y-69655000D01*
X128634000Y-75255000D02*
X128634000Y-69595000D01*
X128674000Y-75314000D02*
X128674000Y-69536000D01*
X128714000Y-75370000D02*
X128714000Y-69480000D01*
X128754000Y-75425000D02*
X128754000Y-69425000D01*
X128794000Y-75479000D02*
X128794000Y-69371000D01*
X128834000Y-75531000D02*
X128834000Y-69319000D01*
X128874000Y-75581000D02*
X128874000Y-69269000D01*
X128914000Y-75631000D02*
X128914000Y-69219000D01*
X128954000Y-75679000D02*
X128954000Y-69171000D01*
X128994000Y-75726000D02*
X128994000Y-69124000D01*
X129034000Y-75772000D02*
X129034000Y-69078000D01*
X129074000Y-75817000D02*
X129074000Y-69033000D01*
X129114000Y-75861000D02*
X129114000Y-68989000D01*
X129154000Y-71184000D02*
X129154000Y-68947000D01*
X129154000Y-75903000D02*
X129154000Y-73666000D01*
X129194000Y-71184000D02*
X129194000Y-68905000D01*
X129194000Y-75945000D02*
X129194000Y-73666000D01*
X129234000Y-71184000D02*
X129234000Y-68864000D01*
X129234000Y-75986000D02*
X129234000Y-73666000D01*
X129274000Y-71184000D02*
X129274000Y-68824000D01*
X129274000Y-76026000D02*
X129274000Y-73666000D01*
X129314000Y-71184000D02*
X129314000Y-68785000D01*
X129314000Y-76065000D02*
X129314000Y-73666000D01*
X129354000Y-71184000D02*
X129354000Y-68746000D01*
X129354000Y-76104000D02*
X129354000Y-73666000D01*
X129394000Y-71184000D02*
X129394000Y-68709000D01*
X129394000Y-76141000D02*
X129394000Y-73666000D01*
X129434000Y-71184000D02*
X129434000Y-68672000D01*
X129434000Y-76178000D02*
X129434000Y-73666000D01*
X129474000Y-71184000D02*
X129474000Y-68636000D01*
X129474000Y-76214000D02*
X129474000Y-73666000D01*
X129514000Y-71184000D02*
X129514000Y-68601000D01*
X129514000Y-76249000D02*
X129514000Y-73666000D01*
X129554000Y-71184000D02*
X129554000Y-68567000D01*
X129554000Y-76283000D02*
X129554000Y-73666000D01*
X129594000Y-71184000D02*
X129594000Y-68533000D01*
X129594000Y-76317000D02*
X129594000Y-73666000D01*
X129634000Y-71184000D02*
X129634000Y-68500000D01*
X129634000Y-76350000D02*
X129634000Y-73666000D01*
X129674000Y-71184000D02*
X129674000Y-68468000D01*
X129674000Y-76382000D02*
X129674000Y-73666000D01*
X129714000Y-71184000D02*
X129714000Y-68436000D01*
X129714000Y-76414000D02*
X129714000Y-73666000D01*
X129754000Y-71184000D02*
X129754000Y-68405000D01*
X129754000Y-76445000D02*
X129754000Y-73666000D01*
X129794000Y-71184000D02*
X129794000Y-68375000D01*
X129794000Y-76475000D02*
X129794000Y-73666000D01*
X129834000Y-71184000D02*
X129834000Y-68345000D01*
X129834000Y-76505000D02*
X129834000Y-73666000D01*
X129874000Y-71184000D02*
X129874000Y-68315000D01*
X129874000Y-76535000D02*
X129874000Y-73666000D01*
X129914000Y-71184000D02*
X129914000Y-68287000D01*
X129914000Y-76563000D02*
X129914000Y-73666000D01*
X129954000Y-71184000D02*
X129954000Y-68259000D01*
X129954000Y-76591000D02*
X129954000Y-73666000D01*
X129994000Y-71184000D02*
X129994000Y-68231000D01*
X129994000Y-76619000D02*
X129994000Y-73666000D01*
X130034000Y-71184000D02*
X130034000Y-68204000D01*
X130034000Y-76646000D02*
X130034000Y-73666000D01*
X130074000Y-71184000D02*
X130074000Y-68178000D01*
X130074000Y-76672000D02*
X130074000Y-73666000D01*
X130114000Y-71184000D02*
X130114000Y-68152000D01*
X130114000Y-76698000D02*
X130114000Y-73666000D01*
X130154000Y-71184000D02*
X130154000Y-68127000D01*
X130154000Y-76723000D02*
X130154000Y-73666000D01*
X130194000Y-71184000D02*
X130194000Y-68102000D01*
X130194000Y-76748000D02*
X130194000Y-73666000D01*
X130234000Y-71184000D02*
X130234000Y-68078000D01*
X130234000Y-76772000D02*
X130234000Y-73666000D01*
X130274000Y-71184000D02*
X130274000Y-68054000D01*
X130274000Y-76796000D02*
X130274000Y-73666000D01*
X130314000Y-71184000D02*
X130314000Y-68030000D01*
X130314000Y-76820000D02*
X130314000Y-73666000D01*
X130354000Y-71184000D02*
X130354000Y-68008000D01*
X130354000Y-76842000D02*
X130354000Y-73666000D01*
X130394000Y-71184000D02*
X130394000Y-67985000D01*
X130394000Y-76865000D02*
X130394000Y-73666000D01*
X130434000Y-71184000D02*
X130434000Y-67963000D01*
X130434000Y-76887000D02*
X130434000Y-73666000D01*
X130474000Y-71184000D02*
X130474000Y-67942000D01*
X130474000Y-76908000D02*
X130474000Y-73666000D01*
X130514000Y-71184000D02*
X130514000Y-67921000D01*
X130514000Y-76929000D02*
X130514000Y-73666000D01*
X130554000Y-71184000D02*
X130554000Y-67900000D01*
X130554000Y-76950000D02*
X130554000Y-73666000D01*
X130594000Y-71184000D02*
X130594000Y-67880000D01*
X130594000Y-76970000D02*
X130594000Y-73666000D01*
X130634000Y-71184000D02*
X130634000Y-67861000D01*
X130634000Y-76989000D02*
X130634000Y-73666000D01*
X130674000Y-71184000D02*
X130674000Y-67841000D01*
X130674000Y-77009000D02*
X130674000Y-73666000D01*
X130714000Y-71184000D02*
X130714000Y-67822000D01*
X130714000Y-77028000D02*
X130714000Y-73666000D01*
X130754000Y-71184000D02*
X130754000Y-67804000D01*
X130754000Y-77046000D02*
X130754000Y-73666000D01*
X130794000Y-71184000D02*
X130794000Y-67786000D01*
X130794000Y-77064000D02*
X130794000Y-73666000D01*
X130834000Y-71184000D02*
X130834000Y-67768000D01*
X130834000Y-77082000D02*
X130834000Y-73666000D01*
X130874000Y-71184000D02*
X130874000Y-67751000D01*
X130874000Y-77099000D02*
X130874000Y-73666000D01*
X130914000Y-71184000D02*
X130914000Y-67735000D01*
X130914000Y-77115000D02*
X130914000Y-73666000D01*
X130954000Y-71184000D02*
X130954000Y-67718000D01*
X130954000Y-77132000D02*
X130954000Y-73666000D01*
X130994000Y-71184000D02*
X130994000Y-67702000D01*
X130994000Y-77148000D02*
X130994000Y-73666000D01*
X131034000Y-71184000D02*
X131034000Y-67687000D01*
X131034000Y-77163000D02*
X131034000Y-73666000D01*
X131074000Y-71184000D02*
X131074000Y-67671000D01*
X131074000Y-77179000D02*
X131074000Y-73666000D01*
X131114000Y-71184000D02*
X131114000Y-67657000D01*
X131114000Y-77193000D02*
X131114000Y-73666000D01*
X131154000Y-71184000D02*
X131154000Y-67642000D01*
X131154000Y-77208000D02*
X131154000Y-73666000D01*
X131194000Y-71184000D02*
X131194000Y-67628000D01*
X131194000Y-77222000D02*
X131194000Y-73666000D01*
X131234000Y-71184000D02*
X131234000Y-67614000D01*
X131234000Y-77236000D02*
X131234000Y-73666000D01*
X131274000Y-71184000D02*
X131274000Y-67601000D01*
X131274000Y-77249000D02*
X131274000Y-73666000D01*
X131314000Y-71184000D02*
X131314000Y-67588000D01*
X131314000Y-77262000D02*
X131314000Y-73666000D01*
X131354000Y-71184000D02*
X131354000Y-67575000D01*
X131354000Y-77275000D02*
X131354000Y-73666000D01*
X131394000Y-71184000D02*
X131394000Y-67563000D01*
X131394000Y-77287000D02*
X131394000Y-73666000D01*
X131434000Y-71184000D02*
X131434000Y-67551000D01*
X131434000Y-77299000D02*
X131434000Y-73666000D01*
X131474000Y-71184000D02*
X131474000Y-67540000D01*
X131474000Y-77310000D02*
X131474000Y-73666000D01*
X131514000Y-71184000D02*
X131514000Y-67528000D01*
X131514000Y-77322000D02*
X131514000Y-73666000D01*
X131554000Y-71184000D02*
X131554000Y-67518000D01*
X131554000Y-77332000D02*
X131554000Y-73666000D01*
X131594000Y-71184000D02*
X131594000Y-67507000D01*
X131594000Y-77343000D02*
X131594000Y-73666000D01*
X131634000Y-77353000D02*
X131634000Y-67497000D01*
X131674000Y-77363000D02*
X131674000Y-67487000D01*
X131714000Y-77372000D02*
X131714000Y-67478000D01*
X131754000Y-77381000D02*
X131754000Y-67469000D01*
X131794000Y-77390000D02*
X131794000Y-67460000D01*
X131834000Y-77399000D02*
X131834000Y-67451000D01*
X131874000Y-77407000D02*
X131874000Y-67443000D01*
X131914000Y-77415000D02*
X131914000Y-67435000D01*
X131954000Y-77422000D02*
X131954000Y-67428000D01*
X131994000Y-77429000D02*
X131994000Y-67421000D01*
X132034000Y-77436000D02*
X132034000Y-67414000D01*
X132074000Y-77443000D02*
X132074000Y-67407000D01*
X132114000Y-77449000D02*
X132114000Y-67401000D01*
X132154000Y-77455000D02*
X132154000Y-67395000D01*
X132195000Y-77460000D02*
X132195000Y-67390000D01*
X132235000Y-77465000D02*
X132235000Y-67385000D01*
X132275000Y-77470000D02*
X132275000Y-67380000D01*
X132315000Y-77475000D02*
X132315000Y-67375000D01*
X132355000Y-77479000D02*
X132355000Y-67371000D01*
X132395000Y-77483000D02*
X132395000Y-67367000D01*
X132435000Y-77487000D02*
X132435000Y-67363000D01*
X132475000Y-77490000D02*
X132475000Y-67360000D01*
X132515000Y-77493000D02*
X132515000Y-67357000D01*
X132555000Y-77495000D02*
X132555000Y-67355000D01*
X132595000Y-77498000D02*
X132595000Y-67352000D01*
X132635000Y-77500000D02*
X132635000Y-67350000D01*
X132675000Y-77502000D02*
X132675000Y-67348000D01*
X132715000Y-77503000D02*
X132715000Y-67347000D01*
X132755000Y-77504000D02*
X132755000Y-67346000D01*
X132795000Y-77505000D02*
X132795000Y-67345000D01*
X132835000Y-77505000D02*
X132835000Y-67345000D01*
X132875000Y-77505000D02*
X132875000Y-67345000D01*
X137995000Y-72425000D02*
G75*
G03*
X137995000Y-72425000I-5120000J0D01*
G01*
%TO.C,C5*%
X126070000Y-68730000D02*
X126070000Y-73970000D01*
X123330000Y-68730000D02*
X123330000Y-73970000D01*
X126070000Y-68730000D02*
X125755000Y-68730000D01*
X123645000Y-68730000D02*
X123330000Y-68730000D01*
X126070000Y-73970000D02*
X125755000Y-73970000D01*
X123645000Y-73970000D02*
X123330000Y-73970000D01*
%TO.C,C4*%
X115745000Y-90555000D02*
X115745000Y-98795000D01*
X110505000Y-90555000D02*
X110505000Y-98795000D01*
X115745000Y-90555000D02*
X114071000Y-90555000D01*
X112179000Y-90555000D02*
X110505000Y-90555000D01*
X115745000Y-98795000D02*
X114071000Y-98795000D01*
X112179000Y-98795000D02*
X110505000Y-98795000D01*
%TO.C,C3*%
X150870000Y-106880000D02*
X150870000Y-109620000D01*
X143630000Y-106880000D02*
X143630000Y-109620000D01*
X143630000Y-109620000D02*
X150870000Y-109620000D01*
X143630000Y-106880000D02*
X150870000Y-106880000D01*
%TO.C,C2*%
X127125000Y-112770354D02*
X126125000Y-112770354D01*
X126625000Y-112270354D02*
X126625000Y-113270354D01*
X124349000Y-122831000D02*
X123151000Y-122831000D01*
X124612000Y-122791000D02*
X122888000Y-122791000D01*
X124812000Y-122751000D02*
X122688000Y-122751000D01*
X124980000Y-122711000D02*
X122520000Y-122711000D01*
X125128000Y-122671000D02*
X122372000Y-122671000D01*
X125260000Y-122631000D02*
X122240000Y-122631000D01*
X125380000Y-122591000D02*
X122120000Y-122591000D01*
X125492000Y-122551000D02*
X122008000Y-122551000D01*
X125596000Y-122511000D02*
X121904000Y-122511000D01*
X125694000Y-122471000D02*
X121806000Y-122471000D01*
X125787000Y-122431000D02*
X121713000Y-122431000D01*
X125875000Y-122391000D02*
X121625000Y-122391000D01*
X125959000Y-122351000D02*
X121541000Y-122351000D01*
X126039000Y-122311000D02*
X121461000Y-122311000D01*
X126115000Y-122271000D02*
X121385000Y-122271000D01*
X126189000Y-122231000D02*
X121311000Y-122231000D01*
X126260000Y-122191000D02*
X121240000Y-122191000D01*
X126329000Y-122151000D02*
X121171000Y-122151000D01*
X126395000Y-122111000D02*
X121105000Y-122111000D01*
X126459000Y-122071000D02*
X121041000Y-122071000D01*
X126520000Y-122031000D02*
X120980000Y-122031000D01*
X126580000Y-121991000D02*
X120920000Y-121991000D01*
X126639000Y-121951000D02*
X120861000Y-121951000D01*
X126695000Y-121911000D02*
X120805000Y-121911000D01*
X126750000Y-121871000D02*
X120750000Y-121871000D01*
X126804000Y-121831000D02*
X120696000Y-121831000D01*
X126856000Y-121791000D02*
X120644000Y-121791000D01*
X126906000Y-121751000D02*
X120594000Y-121751000D01*
X126956000Y-121711000D02*
X120544000Y-121711000D01*
X127004000Y-121671000D02*
X120496000Y-121671000D01*
X127051000Y-121631000D02*
X120449000Y-121631000D01*
X127097000Y-121591000D02*
X120403000Y-121591000D01*
X127142000Y-121551000D02*
X120358000Y-121551000D01*
X127186000Y-121511000D02*
X120314000Y-121511000D01*
X122509000Y-121471000D02*
X120272000Y-121471000D01*
X127228000Y-121471000D02*
X124991000Y-121471000D01*
X122509000Y-121431000D02*
X120230000Y-121431000D01*
X127270000Y-121431000D02*
X124991000Y-121431000D01*
X122509000Y-121391000D02*
X120189000Y-121391000D01*
X127311000Y-121391000D02*
X124991000Y-121391000D01*
X122509000Y-121351000D02*
X120149000Y-121351000D01*
X127351000Y-121351000D02*
X124991000Y-121351000D01*
X122509000Y-121311000D02*
X120110000Y-121311000D01*
X127390000Y-121311000D02*
X124991000Y-121311000D01*
X122509000Y-121271000D02*
X120071000Y-121271000D01*
X127429000Y-121271000D02*
X124991000Y-121271000D01*
X122509000Y-121231000D02*
X120034000Y-121231000D01*
X127466000Y-121231000D02*
X124991000Y-121231000D01*
X122509000Y-121191000D02*
X119997000Y-121191000D01*
X127503000Y-121191000D02*
X124991000Y-121191000D01*
X122509000Y-121151000D02*
X119961000Y-121151000D01*
X127539000Y-121151000D02*
X124991000Y-121151000D01*
X122509000Y-121111000D02*
X119926000Y-121111000D01*
X127574000Y-121111000D02*
X124991000Y-121111000D01*
X122509000Y-121071000D02*
X119892000Y-121071000D01*
X127608000Y-121071000D02*
X124991000Y-121071000D01*
X122509000Y-121031000D02*
X119858000Y-121031000D01*
X127642000Y-121031000D02*
X124991000Y-121031000D01*
X122509000Y-120991000D02*
X119825000Y-120991000D01*
X127675000Y-120991000D02*
X124991000Y-120991000D01*
X122509000Y-120951000D02*
X119793000Y-120951000D01*
X127707000Y-120951000D02*
X124991000Y-120951000D01*
X122509000Y-120911000D02*
X119761000Y-120911000D01*
X127739000Y-120911000D02*
X124991000Y-120911000D01*
X122509000Y-120871000D02*
X119730000Y-120871000D01*
X127770000Y-120871000D02*
X124991000Y-120871000D01*
X122509000Y-120831000D02*
X119700000Y-120831000D01*
X127800000Y-120831000D02*
X124991000Y-120831000D01*
X122509000Y-120791000D02*
X119670000Y-120791000D01*
X127830000Y-120791000D02*
X124991000Y-120791000D01*
X122509000Y-120751000D02*
X119640000Y-120751000D01*
X127860000Y-120751000D02*
X124991000Y-120751000D01*
X122509000Y-120711000D02*
X119612000Y-120711000D01*
X127888000Y-120711000D02*
X124991000Y-120711000D01*
X122509000Y-120671000D02*
X119584000Y-120671000D01*
X127916000Y-120671000D02*
X124991000Y-120671000D01*
X122509000Y-120631000D02*
X119556000Y-120631000D01*
X127944000Y-120631000D02*
X124991000Y-120631000D01*
X122509000Y-120591000D02*
X119529000Y-120591000D01*
X127971000Y-120591000D02*
X124991000Y-120591000D01*
X122509000Y-120551000D02*
X119503000Y-120551000D01*
X127997000Y-120551000D02*
X124991000Y-120551000D01*
X122509000Y-120511000D02*
X119477000Y-120511000D01*
X128023000Y-120511000D02*
X124991000Y-120511000D01*
X122509000Y-120471000D02*
X119452000Y-120471000D01*
X128048000Y-120471000D02*
X124991000Y-120471000D01*
X122509000Y-120431000D02*
X119427000Y-120431000D01*
X128073000Y-120431000D02*
X124991000Y-120431000D01*
X122509000Y-120391000D02*
X119403000Y-120391000D01*
X128097000Y-120391000D02*
X124991000Y-120391000D01*
X122509000Y-120351000D02*
X119379000Y-120351000D01*
X128121000Y-120351000D02*
X124991000Y-120351000D01*
X122509000Y-120311000D02*
X119355000Y-120311000D01*
X128145000Y-120311000D02*
X124991000Y-120311000D01*
X122509000Y-120271000D02*
X119333000Y-120271000D01*
X128167000Y-120271000D02*
X124991000Y-120271000D01*
X122509000Y-120231000D02*
X119310000Y-120231000D01*
X128190000Y-120231000D02*
X124991000Y-120231000D01*
X122509000Y-120191000D02*
X119288000Y-120191000D01*
X128212000Y-120191000D02*
X124991000Y-120191000D01*
X122509000Y-120151000D02*
X119267000Y-120151000D01*
X128233000Y-120151000D02*
X124991000Y-120151000D01*
X122509000Y-120111000D02*
X119246000Y-120111000D01*
X128254000Y-120111000D02*
X124991000Y-120111000D01*
X122509000Y-120071000D02*
X119225000Y-120071000D01*
X128275000Y-120071000D02*
X124991000Y-120071000D01*
X122509000Y-120031000D02*
X119205000Y-120031000D01*
X128295000Y-120031000D02*
X124991000Y-120031000D01*
X122509000Y-119991000D02*
X119186000Y-119991000D01*
X128314000Y-119991000D02*
X124991000Y-119991000D01*
X122509000Y-119951000D02*
X119166000Y-119951000D01*
X128334000Y-119951000D02*
X124991000Y-119951000D01*
X122509000Y-119911000D02*
X119147000Y-119911000D01*
X128353000Y-119911000D02*
X124991000Y-119911000D01*
X122509000Y-119871000D02*
X119129000Y-119871000D01*
X128371000Y-119871000D02*
X124991000Y-119871000D01*
X122509000Y-119831000D02*
X119111000Y-119831000D01*
X128389000Y-119831000D02*
X124991000Y-119831000D01*
X122509000Y-119791000D02*
X119093000Y-119791000D01*
X128407000Y-119791000D02*
X124991000Y-119791000D01*
X122509000Y-119751000D02*
X119076000Y-119751000D01*
X128424000Y-119751000D02*
X124991000Y-119751000D01*
X122509000Y-119711000D02*
X119060000Y-119711000D01*
X128440000Y-119711000D02*
X124991000Y-119711000D01*
X122509000Y-119671000D02*
X119043000Y-119671000D01*
X128457000Y-119671000D02*
X124991000Y-119671000D01*
X122509000Y-119631000D02*
X119027000Y-119631000D01*
X128473000Y-119631000D02*
X124991000Y-119631000D01*
X122509000Y-119591000D02*
X119012000Y-119591000D01*
X128488000Y-119591000D02*
X124991000Y-119591000D01*
X122509000Y-119551000D02*
X118996000Y-119551000D01*
X128504000Y-119551000D02*
X124991000Y-119551000D01*
X122509000Y-119511000D02*
X118982000Y-119511000D01*
X128518000Y-119511000D02*
X124991000Y-119511000D01*
X122509000Y-119471000D02*
X118967000Y-119471000D01*
X128533000Y-119471000D02*
X124991000Y-119471000D01*
X122509000Y-119431000D02*
X118953000Y-119431000D01*
X128547000Y-119431000D02*
X124991000Y-119431000D01*
X122509000Y-119391000D02*
X118939000Y-119391000D01*
X128561000Y-119391000D02*
X124991000Y-119391000D01*
X122509000Y-119351000D02*
X118926000Y-119351000D01*
X128574000Y-119351000D02*
X124991000Y-119351000D01*
X122509000Y-119311000D02*
X118913000Y-119311000D01*
X128587000Y-119311000D02*
X124991000Y-119311000D01*
X122509000Y-119271000D02*
X118900000Y-119271000D01*
X128600000Y-119271000D02*
X124991000Y-119271000D01*
X122509000Y-119231000D02*
X118888000Y-119231000D01*
X128612000Y-119231000D02*
X124991000Y-119231000D01*
X122509000Y-119191000D02*
X118876000Y-119191000D01*
X128624000Y-119191000D02*
X124991000Y-119191000D01*
X122509000Y-119151000D02*
X118865000Y-119151000D01*
X128635000Y-119151000D02*
X124991000Y-119151000D01*
X122509000Y-119111000D02*
X118853000Y-119111000D01*
X128647000Y-119111000D02*
X124991000Y-119111000D01*
X122509000Y-119071000D02*
X118843000Y-119071000D01*
X128657000Y-119071000D02*
X124991000Y-119071000D01*
X122509000Y-119031000D02*
X118832000Y-119031000D01*
X128668000Y-119031000D02*
X124991000Y-119031000D01*
X128678000Y-118991000D02*
X118822000Y-118991000D01*
X128688000Y-118951000D02*
X118812000Y-118951000D01*
X128697000Y-118911000D02*
X118803000Y-118911000D01*
X128706000Y-118871000D02*
X118794000Y-118871000D01*
X128715000Y-118831000D02*
X118785000Y-118831000D01*
X128724000Y-118791000D02*
X118776000Y-118791000D01*
X128732000Y-118751000D02*
X118768000Y-118751000D01*
X128740000Y-118711000D02*
X118760000Y-118711000D01*
X128747000Y-118671000D02*
X118753000Y-118671000D01*
X128754000Y-118631000D02*
X118746000Y-118631000D01*
X128761000Y-118591000D02*
X118739000Y-118591000D01*
X128768000Y-118551000D02*
X118732000Y-118551000D01*
X128774000Y-118511000D02*
X118726000Y-118511000D01*
X128780000Y-118471000D02*
X118720000Y-118471000D01*
X128785000Y-118430000D02*
X118715000Y-118430000D01*
X128790000Y-118390000D02*
X118710000Y-118390000D01*
X128795000Y-118350000D02*
X118705000Y-118350000D01*
X128800000Y-118310000D02*
X118700000Y-118310000D01*
X128804000Y-118270000D02*
X118696000Y-118270000D01*
X128808000Y-118230000D02*
X118692000Y-118230000D01*
X128812000Y-118190000D02*
X118688000Y-118190000D01*
X128815000Y-118150000D02*
X118685000Y-118150000D01*
X128818000Y-118110000D02*
X118682000Y-118110000D01*
X128820000Y-118070000D02*
X118680000Y-118070000D01*
X128823000Y-118030000D02*
X118677000Y-118030000D01*
X128825000Y-117990000D02*
X118675000Y-117990000D01*
X128827000Y-117950000D02*
X118673000Y-117950000D01*
X128828000Y-117910000D02*
X118672000Y-117910000D01*
X128829000Y-117870000D02*
X118671000Y-117870000D01*
X128830000Y-117830000D02*
X118670000Y-117830000D01*
X128830000Y-117790000D02*
X118670000Y-117790000D01*
X128830000Y-117750000D02*
X118670000Y-117750000D01*
X128870000Y-117750000D02*
G75*
G03*
X128870000Y-117750000I-5120000J0D01*
G01*
%TO.C,C1*%
X142370000Y-134750000D02*
G75*
G03*
X142370000Y-134750000I-5120000J0D01*
G01*
X142330000Y-134750000D02*
X132170000Y-134750000D01*
X142330000Y-134790000D02*
X132170000Y-134790000D01*
X142330000Y-134830000D02*
X132170000Y-134830000D01*
X142329000Y-134870000D02*
X132171000Y-134870000D01*
X142328000Y-134910000D02*
X132172000Y-134910000D01*
X142327000Y-134950000D02*
X132173000Y-134950000D01*
X142325000Y-134990000D02*
X132175000Y-134990000D01*
X142323000Y-135030000D02*
X132177000Y-135030000D01*
X142320000Y-135070000D02*
X132180000Y-135070000D01*
X142318000Y-135110000D02*
X132182000Y-135110000D01*
X142315000Y-135150000D02*
X132185000Y-135150000D01*
X142312000Y-135190000D02*
X132188000Y-135190000D01*
X142308000Y-135230000D02*
X132192000Y-135230000D01*
X142304000Y-135270000D02*
X132196000Y-135270000D01*
X142300000Y-135310000D02*
X132200000Y-135310000D01*
X142295000Y-135350000D02*
X132205000Y-135350000D01*
X142290000Y-135390000D02*
X132210000Y-135390000D01*
X142285000Y-135430000D02*
X132215000Y-135430000D01*
X142280000Y-135471000D02*
X132220000Y-135471000D01*
X142274000Y-135511000D02*
X132226000Y-135511000D01*
X142268000Y-135551000D02*
X132232000Y-135551000D01*
X142261000Y-135591000D02*
X132239000Y-135591000D01*
X142254000Y-135631000D02*
X132246000Y-135631000D01*
X142247000Y-135671000D02*
X132253000Y-135671000D01*
X142240000Y-135711000D02*
X132260000Y-135711000D01*
X142232000Y-135751000D02*
X132268000Y-135751000D01*
X142224000Y-135791000D02*
X132276000Y-135791000D01*
X142215000Y-135831000D02*
X132285000Y-135831000D01*
X142206000Y-135871000D02*
X132294000Y-135871000D01*
X142197000Y-135911000D02*
X132303000Y-135911000D01*
X142188000Y-135951000D02*
X132312000Y-135951000D01*
X142178000Y-135991000D02*
X132322000Y-135991000D01*
X142168000Y-136031000D02*
X138491000Y-136031000D01*
X136009000Y-136031000D02*
X132332000Y-136031000D01*
X142157000Y-136071000D02*
X138491000Y-136071000D01*
X136009000Y-136071000D02*
X132343000Y-136071000D01*
X142147000Y-136111000D02*
X138491000Y-136111000D01*
X136009000Y-136111000D02*
X132353000Y-136111000D01*
X142135000Y-136151000D02*
X138491000Y-136151000D01*
X136009000Y-136151000D02*
X132365000Y-136151000D01*
X142124000Y-136191000D02*
X138491000Y-136191000D01*
X136009000Y-136191000D02*
X132376000Y-136191000D01*
X142112000Y-136231000D02*
X138491000Y-136231000D01*
X136009000Y-136231000D02*
X132388000Y-136231000D01*
X142100000Y-136271000D02*
X138491000Y-136271000D01*
X136009000Y-136271000D02*
X132400000Y-136271000D01*
X142087000Y-136311000D02*
X138491000Y-136311000D01*
X136009000Y-136311000D02*
X132413000Y-136311000D01*
X142074000Y-136351000D02*
X138491000Y-136351000D01*
X136009000Y-136351000D02*
X132426000Y-136351000D01*
X142061000Y-136391000D02*
X138491000Y-136391000D01*
X136009000Y-136391000D02*
X132439000Y-136391000D01*
X142047000Y-136431000D02*
X138491000Y-136431000D01*
X136009000Y-136431000D02*
X132453000Y-136431000D01*
X142033000Y-136471000D02*
X138491000Y-136471000D01*
X136009000Y-136471000D02*
X132467000Y-136471000D01*
X142018000Y-136511000D02*
X138491000Y-136511000D01*
X136009000Y-136511000D02*
X132482000Y-136511000D01*
X142004000Y-136551000D02*
X138491000Y-136551000D01*
X136009000Y-136551000D02*
X132496000Y-136551000D01*
X141988000Y-136591000D02*
X138491000Y-136591000D01*
X136009000Y-136591000D02*
X132512000Y-136591000D01*
X141973000Y-136631000D02*
X138491000Y-136631000D01*
X136009000Y-136631000D02*
X132527000Y-136631000D01*
X141957000Y-136671000D02*
X138491000Y-136671000D01*
X136009000Y-136671000D02*
X132543000Y-136671000D01*
X141940000Y-136711000D02*
X138491000Y-136711000D01*
X136009000Y-136711000D02*
X132560000Y-136711000D01*
X141924000Y-136751000D02*
X138491000Y-136751000D01*
X136009000Y-136751000D02*
X132576000Y-136751000D01*
X141907000Y-136791000D02*
X138491000Y-136791000D01*
X136009000Y-136791000D02*
X132593000Y-136791000D01*
X141889000Y-136831000D02*
X138491000Y-136831000D01*
X136009000Y-136831000D02*
X132611000Y-136831000D01*
X141871000Y-136871000D02*
X138491000Y-136871000D01*
X136009000Y-136871000D02*
X132629000Y-136871000D01*
X141853000Y-136911000D02*
X138491000Y-136911000D01*
X136009000Y-136911000D02*
X132647000Y-136911000D01*
X141834000Y-136951000D02*
X138491000Y-136951000D01*
X136009000Y-136951000D02*
X132666000Y-136951000D01*
X141814000Y-136991000D02*
X138491000Y-136991000D01*
X136009000Y-136991000D02*
X132686000Y-136991000D01*
X141795000Y-137031000D02*
X138491000Y-137031000D01*
X136009000Y-137031000D02*
X132705000Y-137031000D01*
X141775000Y-137071000D02*
X138491000Y-137071000D01*
X136009000Y-137071000D02*
X132725000Y-137071000D01*
X141754000Y-137111000D02*
X138491000Y-137111000D01*
X136009000Y-137111000D02*
X132746000Y-137111000D01*
X141733000Y-137151000D02*
X138491000Y-137151000D01*
X136009000Y-137151000D02*
X132767000Y-137151000D01*
X141712000Y-137191000D02*
X138491000Y-137191000D01*
X136009000Y-137191000D02*
X132788000Y-137191000D01*
X141690000Y-137231000D02*
X138491000Y-137231000D01*
X136009000Y-137231000D02*
X132810000Y-137231000D01*
X141667000Y-137271000D02*
X138491000Y-137271000D01*
X136009000Y-137271000D02*
X132833000Y-137271000D01*
X141645000Y-137311000D02*
X138491000Y-137311000D01*
X136009000Y-137311000D02*
X132855000Y-137311000D01*
X141621000Y-137351000D02*
X138491000Y-137351000D01*
X136009000Y-137351000D02*
X132879000Y-137351000D01*
X141597000Y-137391000D02*
X138491000Y-137391000D01*
X136009000Y-137391000D02*
X132903000Y-137391000D01*
X141573000Y-137431000D02*
X138491000Y-137431000D01*
X136009000Y-137431000D02*
X132927000Y-137431000D01*
X141548000Y-137471000D02*
X138491000Y-137471000D01*
X136009000Y-137471000D02*
X132952000Y-137471000D01*
X141523000Y-137511000D02*
X138491000Y-137511000D01*
X136009000Y-137511000D02*
X132977000Y-137511000D01*
X141497000Y-137551000D02*
X138491000Y-137551000D01*
X136009000Y-137551000D02*
X133003000Y-137551000D01*
X141471000Y-137591000D02*
X138491000Y-137591000D01*
X136009000Y-137591000D02*
X133029000Y-137591000D01*
X141444000Y-137631000D02*
X138491000Y-137631000D01*
X136009000Y-137631000D02*
X133056000Y-137631000D01*
X141416000Y-137671000D02*
X138491000Y-137671000D01*
X136009000Y-137671000D02*
X133084000Y-137671000D01*
X141388000Y-137711000D02*
X138491000Y-137711000D01*
X136009000Y-137711000D02*
X133112000Y-137711000D01*
X141360000Y-137751000D02*
X138491000Y-137751000D01*
X136009000Y-137751000D02*
X133140000Y-137751000D01*
X141330000Y-137791000D02*
X138491000Y-137791000D01*
X136009000Y-137791000D02*
X133170000Y-137791000D01*
X141300000Y-137831000D02*
X138491000Y-137831000D01*
X136009000Y-137831000D02*
X133200000Y-137831000D01*
X141270000Y-137871000D02*
X138491000Y-137871000D01*
X136009000Y-137871000D02*
X133230000Y-137871000D01*
X141239000Y-137911000D02*
X138491000Y-137911000D01*
X136009000Y-137911000D02*
X133261000Y-137911000D01*
X141207000Y-137951000D02*
X138491000Y-137951000D01*
X136009000Y-137951000D02*
X133293000Y-137951000D01*
X141175000Y-137991000D02*
X138491000Y-137991000D01*
X136009000Y-137991000D02*
X133325000Y-137991000D01*
X141142000Y-138031000D02*
X138491000Y-138031000D01*
X136009000Y-138031000D02*
X133358000Y-138031000D01*
X141108000Y-138071000D02*
X138491000Y-138071000D01*
X136009000Y-138071000D02*
X133392000Y-138071000D01*
X141074000Y-138111000D02*
X138491000Y-138111000D01*
X136009000Y-138111000D02*
X133426000Y-138111000D01*
X141039000Y-138151000D02*
X138491000Y-138151000D01*
X136009000Y-138151000D02*
X133461000Y-138151000D01*
X141003000Y-138191000D02*
X138491000Y-138191000D01*
X136009000Y-138191000D02*
X133497000Y-138191000D01*
X140966000Y-138231000D02*
X138491000Y-138231000D01*
X136009000Y-138231000D02*
X133534000Y-138231000D01*
X140929000Y-138271000D02*
X138491000Y-138271000D01*
X136009000Y-138271000D02*
X133571000Y-138271000D01*
X140890000Y-138311000D02*
X138491000Y-138311000D01*
X136009000Y-138311000D02*
X133610000Y-138311000D01*
X140851000Y-138351000D02*
X138491000Y-138351000D01*
X136009000Y-138351000D02*
X133649000Y-138351000D01*
X140811000Y-138391000D02*
X138491000Y-138391000D01*
X136009000Y-138391000D02*
X133689000Y-138391000D01*
X140770000Y-138431000D02*
X138491000Y-138431000D01*
X136009000Y-138431000D02*
X133730000Y-138431000D01*
X140728000Y-138471000D02*
X138491000Y-138471000D01*
X136009000Y-138471000D02*
X133772000Y-138471000D01*
X140686000Y-138511000D02*
X133814000Y-138511000D01*
X140642000Y-138551000D02*
X133858000Y-138551000D01*
X140597000Y-138591000D02*
X133903000Y-138591000D01*
X140551000Y-138631000D02*
X133949000Y-138631000D01*
X140504000Y-138671000D02*
X133996000Y-138671000D01*
X140456000Y-138711000D02*
X134044000Y-138711000D01*
X140406000Y-138751000D02*
X134094000Y-138751000D01*
X140356000Y-138791000D02*
X134144000Y-138791000D01*
X140304000Y-138831000D02*
X134196000Y-138831000D01*
X140250000Y-138871000D02*
X134250000Y-138871000D01*
X140195000Y-138911000D02*
X134305000Y-138911000D01*
X140139000Y-138951000D02*
X134361000Y-138951000D01*
X140080000Y-138991000D02*
X134420000Y-138991000D01*
X140020000Y-139031000D02*
X134480000Y-139031000D01*
X139959000Y-139071000D02*
X134541000Y-139071000D01*
X139895000Y-139111000D02*
X134605000Y-139111000D01*
X139829000Y-139151000D02*
X134671000Y-139151000D01*
X139760000Y-139191000D02*
X134740000Y-139191000D01*
X139689000Y-139231000D02*
X134811000Y-139231000D01*
X139615000Y-139271000D02*
X134885000Y-139271000D01*
X139539000Y-139311000D02*
X134961000Y-139311000D01*
X139459000Y-139351000D02*
X135041000Y-139351000D01*
X139375000Y-139391000D02*
X135125000Y-139391000D01*
X139287000Y-139431000D02*
X135213000Y-139431000D01*
X139194000Y-139471000D02*
X135306000Y-139471000D01*
X139096000Y-139511000D02*
X135404000Y-139511000D01*
X138992000Y-139551000D02*
X135508000Y-139551000D01*
X138880000Y-139591000D02*
X135620000Y-139591000D01*
X138760000Y-139631000D02*
X135740000Y-139631000D01*
X138628000Y-139671000D02*
X135872000Y-139671000D01*
X138480000Y-139711000D02*
X136020000Y-139711000D01*
X138312000Y-139751000D02*
X136188000Y-139751000D01*
X138112000Y-139791000D02*
X136388000Y-139791000D01*
X137849000Y-139831000D02*
X136651000Y-139831000D01*
X140125000Y-129270354D02*
X140125000Y-130270354D01*
X140625000Y-129770354D02*
X139625000Y-129770354D01*
%TD*%
%TO.C,REF\u002A\u002A*%
D11*
X147166666Y-53202380D02*
X146833333Y-52726190D01*
X146595238Y-53202380D02*
X146595238Y-52202380D01*
X146976190Y-52202380D01*
X147071428Y-52250000D01*
X147119047Y-52297619D01*
X147166666Y-52392857D01*
X147166666Y-52535714D01*
X147119047Y-52630952D01*
X147071428Y-52678571D01*
X146976190Y-52726190D01*
X146595238Y-52726190D01*
X147595238Y-52678571D02*
X147928571Y-52678571D01*
X148071428Y-53202380D02*
X147595238Y-53202380D01*
X147595238Y-52202380D01*
X148071428Y-52202380D01*
X148833333Y-52678571D02*
X148500000Y-52678571D01*
X148500000Y-53202380D02*
X148500000Y-52202380D01*
X148976190Y-52202380D01*
X149500000Y-52202380D02*
X149500000Y-52440476D01*
X149261904Y-52345238D02*
X149500000Y-52440476D01*
X149738095Y-52345238D01*
X149357142Y-52630952D02*
X149500000Y-52440476D01*
X149642857Y-52630952D01*
X150261904Y-52202380D02*
X150261904Y-52440476D01*
X150023809Y-52345238D02*
X150261904Y-52440476D01*
X150500000Y-52345238D01*
X150119047Y-52630952D02*
X150261904Y-52440476D01*
X150404761Y-52630952D01*
X148666666Y-133702380D02*
X148333333Y-133226190D01*
X148095238Y-133702380D02*
X148095238Y-132702380D01*
X148476190Y-132702380D01*
X148571428Y-132750000D01*
X148619047Y-132797619D01*
X148666666Y-132892857D01*
X148666666Y-133035714D01*
X148619047Y-133130952D01*
X148571428Y-133178571D01*
X148476190Y-133226190D01*
X148095238Y-133226190D01*
X149095238Y-133178571D02*
X149428571Y-133178571D01*
X149571428Y-133702380D02*
X149095238Y-133702380D01*
X149095238Y-132702380D01*
X149571428Y-132702380D01*
X150333333Y-133178571D02*
X150000000Y-133178571D01*
X150000000Y-133702380D02*
X150000000Y-132702380D01*
X150476190Y-132702380D01*
X151000000Y-132702380D02*
X151000000Y-132940476D01*
X150761904Y-132845238D02*
X151000000Y-132940476D01*
X151238095Y-132845238D01*
X150857142Y-133130952D02*
X151000000Y-132940476D01*
X151142857Y-133130952D01*
X151761904Y-132702380D02*
X151761904Y-132940476D01*
X151523809Y-132845238D02*
X151761904Y-132940476D01*
X152000000Y-132845238D01*
X151619047Y-133130952D02*
X151761904Y-132940476D01*
X151904761Y-133130952D01*
X70666666Y-133752380D02*
X70333333Y-133276190D01*
X70095238Y-133752380D02*
X70095238Y-132752380D01*
X70476190Y-132752380D01*
X70571428Y-132800000D01*
X70619047Y-132847619D01*
X70666666Y-132942857D01*
X70666666Y-133085714D01*
X70619047Y-133180952D01*
X70571428Y-133228571D01*
X70476190Y-133276190D01*
X70095238Y-133276190D01*
X71095238Y-133228571D02*
X71428571Y-133228571D01*
X71571428Y-133752380D02*
X71095238Y-133752380D01*
X71095238Y-132752380D01*
X71571428Y-132752380D01*
X72333333Y-133228571D02*
X72000000Y-133228571D01*
X72000000Y-133752380D02*
X72000000Y-132752380D01*
X72476190Y-132752380D01*
X73000000Y-132752380D02*
X73000000Y-132990476D01*
X72761904Y-132895238D02*
X73000000Y-132990476D01*
X73238095Y-132895238D01*
X72857142Y-133180952D02*
X73000000Y-132990476D01*
X73142857Y-133180952D01*
X73761904Y-132752380D02*
X73761904Y-132990476D01*
X73523809Y-132895238D02*
X73761904Y-132990476D01*
X74000000Y-132895238D01*
X73619047Y-133180952D02*
X73761904Y-132990476D01*
X73904761Y-133180952D01*
X70416666Y-53202380D02*
X70083333Y-52726190D01*
X69845238Y-53202380D02*
X69845238Y-52202380D01*
X70226190Y-52202380D01*
X70321428Y-52250000D01*
X70369047Y-52297619D01*
X70416666Y-52392857D01*
X70416666Y-52535714D01*
X70369047Y-52630952D01*
X70321428Y-52678571D01*
X70226190Y-52726190D01*
X69845238Y-52726190D01*
X70845238Y-52678571D02*
X71178571Y-52678571D01*
X71321428Y-53202380D02*
X70845238Y-53202380D01*
X70845238Y-52202380D01*
X71321428Y-52202380D01*
X72083333Y-52678571D02*
X71750000Y-52678571D01*
X71750000Y-53202380D02*
X71750000Y-52202380D01*
X72226190Y-52202380D01*
X72750000Y-52202380D02*
X72750000Y-52440476D01*
X72511904Y-52345238D02*
X72750000Y-52440476D01*
X72988095Y-52345238D01*
X72607142Y-52630952D02*
X72750000Y-52440476D01*
X72892857Y-52630952D01*
X73511904Y-52202380D02*
X73511904Y-52440476D01*
X73273809Y-52345238D02*
X73511904Y-52440476D01*
X73750000Y-52345238D01*
X73369047Y-52630952D02*
X73511904Y-52440476D01*
X73654761Y-52630952D01*
%TO.C,J3*%
X137456666Y-62242380D02*
X137456666Y-62956666D01*
X137409047Y-63099523D01*
X137313809Y-63194761D01*
X137170952Y-63242380D01*
X137075714Y-63242380D01*
X137837619Y-62242380D02*
X138456666Y-62242380D01*
X138123333Y-62623333D01*
X138266190Y-62623333D01*
X138361428Y-62670952D01*
X138409047Y-62718571D01*
X138456666Y-62813809D01*
X138456666Y-63051904D01*
X138409047Y-63147142D01*
X138361428Y-63194761D01*
X138266190Y-63242380D01*
X137980476Y-63242380D01*
X137885238Y-63194761D01*
X137837619Y-63147142D01*
%TO.C,K2*%
X83261904Y-93952380D02*
X83261904Y-92952380D01*
X83833333Y-93952380D02*
X83404761Y-93380952D01*
X83833333Y-92952380D02*
X83261904Y-93523809D01*
X84214285Y-93047619D02*
X84261904Y-93000000D01*
X84357142Y-92952380D01*
X84595238Y-92952380D01*
X84690476Y-93000000D01*
X84738095Y-93047619D01*
X84785714Y-93142857D01*
X84785714Y-93238095D01*
X84738095Y-93380952D01*
X84166666Y-93952380D01*
X84785714Y-93952380D01*
%TO.C,T1*%
X126738095Y-89952380D02*
X127309523Y-89952380D01*
X127023809Y-90952380D02*
X127023809Y-89952380D01*
X128166666Y-90952380D02*
X127595238Y-90952380D01*
X127880952Y-90952380D02*
X127880952Y-89952380D01*
X127785714Y-90095238D01*
X127690476Y-90190476D01*
X127595238Y-90238095D01*
%TO.C,K3*%
X120761904Y-50952380D02*
X120761904Y-49952380D01*
X121333333Y-50952380D02*
X120904761Y-50380952D01*
X121333333Y-49952380D02*
X120761904Y-50523809D01*
X121666666Y-49952380D02*
X122285714Y-49952380D01*
X121952380Y-50333333D01*
X122095238Y-50333333D01*
X122190476Y-50380952D01*
X122238095Y-50428571D01*
X122285714Y-50523809D01*
X122285714Y-50761904D01*
X122238095Y-50857142D01*
X122190476Y-50904761D01*
X122095238Y-50952380D01*
X121809523Y-50952380D01*
X121714285Y-50904761D01*
X121666666Y-50857142D01*
%TO.C,K1*%
X99761904Y-93952380D02*
X99761904Y-92952380D01*
X100333333Y-93952380D02*
X99904761Y-93380952D01*
X100333333Y-92952380D02*
X99761904Y-93523809D01*
X101285714Y-93952380D02*
X100714285Y-93952380D01*
X101000000Y-93952380D02*
X101000000Y-92952380D01*
X100904761Y-93095238D01*
X100809523Y-93190476D01*
X100714285Y-93238095D01*
%TO.C,D4*%
X123711904Y-134952380D02*
X123711904Y-133952380D01*
X123950000Y-133952380D01*
X124092857Y-134000000D01*
X124188095Y-134095238D01*
X124235714Y-134190476D01*
X124283333Y-134380952D01*
X124283333Y-134523809D01*
X124235714Y-134714285D01*
X124188095Y-134809523D01*
X124092857Y-134904761D01*
X123950000Y-134952380D01*
X123711904Y-134952380D01*
X125140476Y-134285714D02*
X125140476Y-134952380D01*
X124902380Y-133904761D02*
X124664285Y-134619047D01*
X125283333Y-134619047D01*
%TO.C,F4*%
X113126666Y-117428571D02*
X112793333Y-117428571D01*
X112793333Y-117952380D02*
X112793333Y-116952380D01*
X113269523Y-116952380D01*
X114079047Y-117285714D02*
X114079047Y-117952380D01*
X113840952Y-116904761D02*
X113602857Y-117619047D01*
X114221904Y-117619047D01*
%TO.C,F1*%
X103166666Y-130428571D02*
X102833333Y-130428571D01*
X102833333Y-130952380D02*
X102833333Y-129952380D01*
X103309523Y-129952380D01*
X104214285Y-130952380D02*
X103642857Y-130952380D01*
X103928571Y-130952380D02*
X103928571Y-129952380D01*
X103833333Y-130095238D01*
X103738095Y-130190476D01*
X103642857Y-130238095D01*
%TO.C,U2*%
X147288095Y-91452380D02*
X147288095Y-92261904D01*
X147335714Y-92357142D01*
X147383333Y-92404761D01*
X147478571Y-92452380D01*
X147669047Y-92452380D01*
X147764285Y-92404761D01*
X147811904Y-92357142D01*
X147859523Y-92261904D01*
X147859523Y-91452380D01*
X148288095Y-91547619D02*
X148335714Y-91500000D01*
X148430952Y-91452380D01*
X148669047Y-91452380D01*
X148764285Y-91500000D01*
X148811904Y-91547619D01*
X148859523Y-91642857D01*
X148859523Y-91738095D01*
X148811904Y-91880952D01*
X148240476Y-92452380D01*
X148859523Y-92452380D01*
%TO.C,U1*%
X144973095Y-99952380D02*
X144973095Y-100761904D01*
X145020714Y-100857142D01*
X145068333Y-100904761D01*
X145163571Y-100952380D01*
X145354047Y-100952380D01*
X145449285Y-100904761D01*
X145496904Y-100857142D01*
X145544523Y-100761904D01*
X145544523Y-99952380D01*
X146544523Y-100952380D02*
X145973095Y-100952380D01*
X146258809Y-100952380D02*
X146258809Y-99952380D01*
X146163571Y-100095238D01*
X146068333Y-100190476D01*
X145973095Y-100238095D01*
%TO.C,RV4*%
X112904761Y-133952380D02*
X112571428Y-133476190D01*
X112333333Y-133952380D02*
X112333333Y-132952380D01*
X112714285Y-132952380D01*
X112809523Y-133000000D01*
X112857142Y-133047619D01*
X112904761Y-133142857D01*
X112904761Y-133285714D01*
X112857142Y-133380952D01*
X112809523Y-133428571D01*
X112714285Y-133476190D01*
X112333333Y-133476190D01*
X113190476Y-132952380D02*
X113523809Y-133952380D01*
X113857142Y-132952380D01*
X114619047Y-133285714D02*
X114619047Y-133952380D01*
X114380952Y-132904761D02*
X114142857Y-133619047D01*
X114761904Y-133619047D01*
%TO.C,RV3*%
X81904761Y-109952380D02*
X81571428Y-109476190D01*
X81333333Y-109952380D02*
X81333333Y-108952380D01*
X81714285Y-108952380D01*
X81809523Y-109000000D01*
X81857142Y-109047619D01*
X81904761Y-109142857D01*
X81904761Y-109285714D01*
X81857142Y-109380952D01*
X81809523Y-109428571D01*
X81714285Y-109476190D01*
X81333333Y-109476190D01*
X82190476Y-108952380D02*
X82523809Y-109952380D01*
X82857142Y-108952380D01*
X83095238Y-108952380D02*
X83714285Y-108952380D01*
X83380952Y-109333333D01*
X83523809Y-109333333D01*
X83619047Y-109380952D01*
X83666666Y-109428571D01*
X83714285Y-109523809D01*
X83714285Y-109761904D01*
X83666666Y-109857142D01*
X83619047Y-109904761D01*
X83523809Y-109952380D01*
X83238095Y-109952380D01*
X83142857Y-109904761D01*
X83095238Y-109857142D01*
%TO.C,RV2*%
X82904761Y-123952380D02*
X82571428Y-123476190D01*
X82333333Y-123952380D02*
X82333333Y-122952380D01*
X82714285Y-122952380D01*
X82809523Y-123000000D01*
X82857142Y-123047619D01*
X82904761Y-123142857D01*
X82904761Y-123285714D01*
X82857142Y-123380952D01*
X82809523Y-123428571D01*
X82714285Y-123476190D01*
X82333333Y-123476190D01*
X83190476Y-122952380D02*
X83523809Y-123952380D01*
X83857142Y-122952380D01*
X84142857Y-123047619D02*
X84190476Y-123000000D01*
X84285714Y-122952380D01*
X84523809Y-122952380D01*
X84619047Y-123000000D01*
X84666666Y-123047619D01*
X84714285Y-123142857D01*
X84714285Y-123238095D01*
X84666666Y-123380952D01*
X84095238Y-123952380D01*
X84714285Y-123952380D01*
%TO.C,RV1*%
X85779761Y-116952380D02*
X85446428Y-116476190D01*
X85208333Y-116952380D02*
X85208333Y-115952380D01*
X85589285Y-115952380D01*
X85684523Y-116000000D01*
X85732142Y-116047619D01*
X85779761Y-116142857D01*
X85779761Y-116285714D01*
X85732142Y-116380952D01*
X85684523Y-116428571D01*
X85589285Y-116476190D01*
X85208333Y-116476190D01*
X86065476Y-115952380D02*
X86398809Y-116952380D01*
X86732142Y-115952380D01*
X87589285Y-116952380D02*
X87017857Y-116952380D01*
X87303571Y-116952380D02*
X87303571Y-115952380D01*
X87208333Y-116095238D01*
X87113095Y-116190476D01*
X87017857Y-116238095D01*
%TO.C,R9*%
X120333333Y-76452380D02*
X120000000Y-75976190D01*
X119761904Y-76452380D02*
X119761904Y-75452380D01*
X120142857Y-75452380D01*
X120238095Y-75500000D01*
X120285714Y-75547619D01*
X120333333Y-75642857D01*
X120333333Y-75785714D01*
X120285714Y-75880952D01*
X120238095Y-75928571D01*
X120142857Y-75976190D01*
X119761904Y-75976190D01*
X120809523Y-76452380D02*
X121000000Y-76452380D01*
X121095238Y-76404761D01*
X121142857Y-76357142D01*
X121238095Y-76214285D01*
X121285714Y-76023809D01*
X121285714Y-75642857D01*
X121238095Y-75547619D01*
X121190476Y-75500000D01*
X121095238Y-75452380D01*
X120904761Y-75452380D01*
X120809523Y-75500000D01*
X120761904Y-75547619D01*
X120714285Y-75642857D01*
X120714285Y-75880952D01*
X120761904Y-75976190D01*
X120809523Y-76023809D01*
X120904761Y-76071428D01*
X121095238Y-76071428D01*
X121190476Y-76023809D01*
X121238095Y-75976190D01*
X121285714Y-75880952D01*
%TO.C,R8*%
X143833333Y-81452380D02*
X143500000Y-80976190D01*
X143261904Y-81452380D02*
X143261904Y-80452380D01*
X143642857Y-80452380D01*
X143738095Y-80500000D01*
X143785714Y-80547619D01*
X143833333Y-80642857D01*
X143833333Y-80785714D01*
X143785714Y-80880952D01*
X143738095Y-80928571D01*
X143642857Y-80976190D01*
X143261904Y-80976190D01*
X144404761Y-80880952D02*
X144309523Y-80833333D01*
X144261904Y-80785714D01*
X144214285Y-80690476D01*
X144214285Y-80642857D01*
X144261904Y-80547619D01*
X144309523Y-80500000D01*
X144404761Y-80452380D01*
X144595238Y-80452380D01*
X144690476Y-80500000D01*
X144738095Y-80547619D01*
X144785714Y-80642857D01*
X144785714Y-80690476D01*
X144738095Y-80785714D01*
X144690476Y-80833333D01*
X144595238Y-80880952D01*
X144404761Y-80880952D01*
X144309523Y-80928571D01*
X144261904Y-80976190D01*
X144214285Y-81071428D01*
X144214285Y-81261904D01*
X144261904Y-81357142D01*
X144309523Y-81404761D01*
X144404761Y-81452380D01*
X144595238Y-81452380D01*
X144690476Y-81404761D01*
X144738095Y-81357142D01*
X144785714Y-81261904D01*
X144785714Y-81071428D01*
X144738095Y-80976190D01*
X144690476Y-80928571D01*
X144595238Y-80880952D01*
%TO.C,R7*%
X131613333Y-103952380D02*
X131280000Y-103476190D01*
X131041904Y-103952380D02*
X131041904Y-102952380D01*
X131422857Y-102952380D01*
X131518095Y-103000000D01*
X131565714Y-103047619D01*
X131613333Y-103142857D01*
X131613333Y-103285714D01*
X131565714Y-103380952D01*
X131518095Y-103428571D01*
X131422857Y-103476190D01*
X131041904Y-103476190D01*
X131946666Y-102952380D02*
X132613333Y-102952380D01*
X132184761Y-103952380D01*
%TO.C,R6*%
X118113333Y-103952380D02*
X117780000Y-103476190D01*
X117541904Y-103952380D02*
X117541904Y-102952380D01*
X117922857Y-102952380D01*
X118018095Y-103000000D01*
X118065714Y-103047619D01*
X118113333Y-103142857D01*
X118113333Y-103285714D01*
X118065714Y-103380952D01*
X118018095Y-103428571D01*
X117922857Y-103476190D01*
X117541904Y-103476190D01*
X118970476Y-102952380D02*
X118780000Y-102952380D01*
X118684761Y-103000000D01*
X118637142Y-103047619D01*
X118541904Y-103190476D01*
X118494285Y-103380952D01*
X118494285Y-103761904D01*
X118541904Y-103857142D01*
X118589523Y-103904761D01*
X118684761Y-103952380D01*
X118875238Y-103952380D01*
X118970476Y-103904761D01*
X119018095Y-103857142D01*
X119065714Y-103761904D01*
X119065714Y-103523809D01*
X119018095Y-103428571D01*
X118970476Y-103380952D01*
X118875238Y-103333333D01*
X118684761Y-103333333D01*
X118589523Y-103380952D01*
X118541904Y-103428571D01*
X118494285Y-103523809D01*
%TO.C,R5*%
X122333333Y-64952380D02*
X122000000Y-64476190D01*
X121761904Y-64952380D02*
X121761904Y-63952380D01*
X122142857Y-63952380D01*
X122238095Y-64000000D01*
X122285714Y-64047619D01*
X122333333Y-64142857D01*
X122333333Y-64285714D01*
X122285714Y-64380952D01*
X122238095Y-64428571D01*
X122142857Y-64476190D01*
X121761904Y-64476190D01*
X123238095Y-63952380D02*
X122761904Y-63952380D01*
X122714285Y-64428571D01*
X122761904Y-64380952D01*
X122857142Y-64333333D01*
X123095238Y-64333333D01*
X123190476Y-64380952D01*
X123238095Y-64428571D01*
X123285714Y-64523809D01*
X123285714Y-64761904D01*
X123238095Y-64857142D01*
X123190476Y-64904761D01*
X123095238Y-64952380D01*
X122857142Y-64952380D01*
X122761904Y-64904761D01*
X122714285Y-64857142D01*
%TO.C,R4*%
X105333333Y-56452380D02*
X105000000Y-55976190D01*
X104761904Y-56452380D02*
X104761904Y-55452380D01*
X105142857Y-55452380D01*
X105238095Y-55500000D01*
X105285714Y-55547619D01*
X105333333Y-55642857D01*
X105333333Y-55785714D01*
X105285714Y-55880952D01*
X105238095Y-55928571D01*
X105142857Y-55976190D01*
X104761904Y-55976190D01*
X106190476Y-55785714D02*
X106190476Y-56452380D01*
X105952380Y-55404761D02*
X105714285Y-56119047D01*
X106333333Y-56119047D01*
%TO.C,R3*%
X81538333Y-77452380D02*
X81205000Y-76976190D01*
X80966904Y-77452380D02*
X80966904Y-76452380D01*
X81347857Y-76452380D01*
X81443095Y-76500000D01*
X81490714Y-76547619D01*
X81538333Y-76642857D01*
X81538333Y-76785714D01*
X81490714Y-76880952D01*
X81443095Y-76928571D01*
X81347857Y-76976190D01*
X80966904Y-76976190D01*
X81871666Y-76452380D02*
X82490714Y-76452380D01*
X82157380Y-76833333D01*
X82300238Y-76833333D01*
X82395476Y-76880952D01*
X82443095Y-76928571D01*
X82490714Y-77023809D01*
X82490714Y-77261904D01*
X82443095Y-77357142D01*
X82395476Y-77404761D01*
X82300238Y-77452380D01*
X82014523Y-77452380D01*
X81919285Y-77404761D01*
X81871666Y-77357142D01*
%TO.C,R2*%
X100703333Y-76952380D02*
X100370000Y-76476190D01*
X100131904Y-76952380D02*
X100131904Y-75952380D01*
X100512857Y-75952380D01*
X100608095Y-76000000D01*
X100655714Y-76047619D01*
X100703333Y-76142857D01*
X100703333Y-76285714D01*
X100655714Y-76380952D01*
X100608095Y-76428571D01*
X100512857Y-76476190D01*
X100131904Y-76476190D01*
X101084285Y-76047619D02*
X101131904Y-76000000D01*
X101227142Y-75952380D01*
X101465238Y-75952380D01*
X101560476Y-76000000D01*
X101608095Y-76047619D01*
X101655714Y-76142857D01*
X101655714Y-76238095D01*
X101608095Y-76380952D01*
X101036666Y-76952380D01*
X101655714Y-76952380D01*
%TO.C,R1*%
X103333333Y-108952380D02*
X103000000Y-108476190D01*
X102761904Y-108952380D02*
X102761904Y-107952380D01*
X103142857Y-107952380D01*
X103238095Y-108000000D01*
X103285714Y-108047619D01*
X103333333Y-108142857D01*
X103333333Y-108285714D01*
X103285714Y-108380952D01*
X103238095Y-108428571D01*
X103142857Y-108476190D01*
X102761904Y-108476190D01*
X104285714Y-108952380D02*
X103714285Y-108952380D01*
X104000000Y-108952380D02*
X104000000Y-107952380D01*
X103904761Y-108095238D01*
X103809523Y-108190476D01*
X103714285Y-108238095D01*
%TO.C,Q4*%
X104414761Y-71547619D02*
X104319523Y-71500000D01*
X104224285Y-71404761D01*
X104081428Y-71261904D01*
X103986190Y-71214285D01*
X103890952Y-71214285D01*
X103938571Y-71452380D02*
X103843333Y-71404761D01*
X103748095Y-71309523D01*
X103700476Y-71119047D01*
X103700476Y-70785714D01*
X103748095Y-70595238D01*
X103843333Y-70500000D01*
X103938571Y-70452380D01*
X104129047Y-70452380D01*
X104224285Y-70500000D01*
X104319523Y-70595238D01*
X104367142Y-70785714D01*
X104367142Y-71119047D01*
X104319523Y-71309523D01*
X104224285Y-71404761D01*
X104129047Y-71452380D01*
X103938571Y-71452380D01*
X105224285Y-70785714D02*
X105224285Y-71452380D01*
X104986190Y-70404761D02*
X104748095Y-71119047D01*
X105367142Y-71119047D01*
%TO.C,Q3*%
X98404761Y-64047619D02*
X98309523Y-64000000D01*
X98214285Y-63904761D01*
X98071428Y-63761904D01*
X97976190Y-63714285D01*
X97880952Y-63714285D01*
X97928571Y-63952380D02*
X97833333Y-63904761D01*
X97738095Y-63809523D01*
X97690476Y-63619047D01*
X97690476Y-63285714D01*
X97738095Y-63095238D01*
X97833333Y-63000000D01*
X97928571Y-62952380D01*
X98119047Y-62952380D01*
X98214285Y-63000000D01*
X98309523Y-63095238D01*
X98357142Y-63285714D01*
X98357142Y-63619047D01*
X98309523Y-63809523D01*
X98214285Y-63904761D01*
X98119047Y-63952380D01*
X97928571Y-63952380D01*
X98690476Y-62952380D02*
X99309523Y-62952380D01*
X98976190Y-63333333D01*
X99119047Y-63333333D01*
X99214285Y-63380952D01*
X99261904Y-63428571D01*
X99309523Y-63523809D01*
X99309523Y-63761904D01*
X99261904Y-63857142D01*
X99214285Y-63904761D01*
X99119047Y-63952380D01*
X98833333Y-63952380D01*
X98738095Y-63904761D01*
X98690476Y-63857142D01*
%TO.C,Q2*%
X89404761Y-75047619D02*
X89309523Y-75000000D01*
X89214285Y-74904761D01*
X89071428Y-74761904D01*
X88976190Y-74714285D01*
X88880952Y-74714285D01*
X88928571Y-74952380D02*
X88833333Y-74904761D01*
X88738095Y-74809523D01*
X88690476Y-74619047D01*
X88690476Y-74285714D01*
X88738095Y-74095238D01*
X88833333Y-74000000D01*
X88928571Y-73952380D01*
X89119047Y-73952380D01*
X89214285Y-74000000D01*
X89309523Y-74095238D01*
X89357142Y-74285714D01*
X89357142Y-74619047D01*
X89309523Y-74809523D01*
X89214285Y-74904761D01*
X89119047Y-74952380D01*
X88928571Y-74952380D01*
X89738095Y-74047619D02*
X89785714Y-74000000D01*
X89880952Y-73952380D01*
X90119047Y-73952380D01*
X90214285Y-74000000D01*
X90261904Y-74047619D01*
X90309523Y-74142857D01*
X90309523Y-74238095D01*
X90261904Y-74380952D01*
X89690476Y-74952380D01*
X90309523Y-74952380D01*
%TO.C,Q1*%
X91047619Y-78250238D02*
X91000000Y-78345476D01*
X90904761Y-78440714D01*
X90761904Y-78583571D01*
X90714285Y-78678809D01*
X90714285Y-78774047D01*
X90952380Y-78726428D02*
X90904761Y-78821666D01*
X90809523Y-78916904D01*
X90619047Y-78964523D01*
X90285714Y-78964523D01*
X90095238Y-78916904D01*
X90000000Y-78821666D01*
X89952380Y-78726428D01*
X89952380Y-78535952D01*
X90000000Y-78440714D01*
X90095238Y-78345476D01*
X90285714Y-78297857D01*
X90619047Y-78297857D01*
X90809523Y-78345476D01*
X90904761Y-78440714D01*
X90952380Y-78535952D01*
X90952380Y-78726428D01*
X90952380Y-77345476D02*
X90952380Y-77916904D01*
X90952380Y-77631190D02*
X89952380Y-77631190D01*
X90095238Y-77726428D01*
X90190476Y-77821666D01*
X90238095Y-77916904D01*
%TO.C,NE1*%
X92330714Y-105142380D02*
X92330714Y-104142380D01*
X92902142Y-105142380D01*
X92902142Y-104142380D01*
X93378333Y-104618571D02*
X93711666Y-104618571D01*
X93854523Y-105142380D02*
X93378333Y-105142380D01*
X93378333Y-104142380D01*
X93854523Y-104142380D01*
X94806904Y-105142380D02*
X94235476Y-105142380D01*
X94521190Y-105142380D02*
X94521190Y-104142380D01*
X94425952Y-104285238D01*
X94330714Y-104380476D01*
X94235476Y-104428095D01*
%TO.C,L1*%
X145683333Y-75952380D02*
X145207142Y-75952380D01*
X145207142Y-74952380D01*
X146540476Y-75952380D02*
X145969047Y-75952380D01*
X146254761Y-75952380D02*
X146254761Y-74952380D01*
X146159523Y-75095238D01*
X146064285Y-75190476D01*
X145969047Y-75238095D01*
%TO.C,J2*%
X88466666Y-60777380D02*
X88466666Y-61491666D01*
X88419047Y-61634523D01*
X88323809Y-61729761D01*
X88180952Y-61777380D01*
X88085714Y-61777380D01*
X88895238Y-60872619D02*
X88942857Y-60825000D01*
X89038095Y-60777380D01*
X89276190Y-60777380D01*
X89371428Y-60825000D01*
X89419047Y-60872619D01*
X89466666Y-60967857D01*
X89466666Y-61063095D01*
X89419047Y-61205952D01*
X88847619Y-61777380D01*
X89466666Y-61777380D01*
%TO.C,J1*%
X79166666Y-137952380D02*
X79166666Y-138666666D01*
X79119047Y-138809523D01*
X79023809Y-138904761D01*
X78880952Y-138952380D01*
X78785714Y-138952380D01*
X80166666Y-138952380D02*
X79595238Y-138952380D01*
X79880952Y-138952380D02*
X79880952Y-137952380D01*
X79785714Y-138095238D01*
X79690476Y-138190476D01*
X79595238Y-138238095D01*
%TO.C,FL1*%
X139761904Y-119928571D02*
X139428571Y-119928571D01*
X139428571Y-120452380D02*
X139428571Y-119452380D01*
X139904761Y-119452380D01*
X140761904Y-120452380D02*
X140285714Y-120452380D01*
X140285714Y-119452380D01*
X141619047Y-120452380D02*
X141047619Y-120452380D01*
X141333333Y-120452380D02*
X141333333Y-119452380D01*
X141238095Y-119595238D01*
X141142857Y-119690476D01*
X141047619Y-119738095D01*
%TO.C,D8*%
X113261904Y-75952380D02*
X113261904Y-74952380D01*
X113500000Y-74952380D01*
X113642857Y-75000000D01*
X113738095Y-75095238D01*
X113785714Y-75190476D01*
X113833333Y-75380952D01*
X113833333Y-75523809D01*
X113785714Y-75714285D01*
X113738095Y-75809523D01*
X113642857Y-75904761D01*
X113500000Y-75952380D01*
X113261904Y-75952380D01*
X114404761Y-75380952D02*
X114309523Y-75333333D01*
X114261904Y-75285714D01*
X114214285Y-75190476D01*
X114214285Y-75142857D01*
X114261904Y-75047619D01*
X114309523Y-75000000D01*
X114404761Y-74952380D01*
X114595238Y-74952380D01*
X114690476Y-75000000D01*
X114738095Y-75047619D01*
X114785714Y-75142857D01*
X114785714Y-75190476D01*
X114738095Y-75285714D01*
X114690476Y-75333333D01*
X114595238Y-75380952D01*
X114404761Y-75380952D01*
X114309523Y-75428571D01*
X114261904Y-75476190D01*
X114214285Y-75571428D01*
X114214285Y-75761904D01*
X114261904Y-75857142D01*
X114309523Y-75904761D01*
X114404761Y-75952380D01*
X114595238Y-75952380D01*
X114690476Y-75904761D01*
X114738095Y-75857142D01*
X114785714Y-75761904D01*
X114785714Y-75571428D01*
X114738095Y-75476190D01*
X114690476Y-75428571D01*
X114595238Y-75380952D01*
X116927380Y-68936904D02*
X115927380Y-68936904D01*
X116927380Y-68365476D02*
X116355952Y-68794047D01*
X115927380Y-68365476D02*
X116498809Y-68936904D01*
%TO.C,D7*%
X129761904Y-81452380D02*
X129761904Y-80452380D01*
X130000000Y-80452380D01*
X130142857Y-80500000D01*
X130238095Y-80595238D01*
X130285714Y-80690476D01*
X130333333Y-80880952D01*
X130333333Y-81023809D01*
X130285714Y-81214285D01*
X130238095Y-81309523D01*
X130142857Y-81404761D01*
X130000000Y-81452380D01*
X129761904Y-81452380D01*
X130666666Y-80452380D02*
X131333333Y-80452380D01*
X130904761Y-81452380D01*
X135613095Y-83727380D02*
X135613095Y-82727380D01*
X136184523Y-83727380D02*
X135755952Y-83155952D01*
X136184523Y-82727380D02*
X135613095Y-83298809D01*
%TO.C,D6*%
X131891904Y-107952380D02*
X131891904Y-106952380D01*
X132130000Y-106952380D01*
X132272857Y-107000000D01*
X132368095Y-107095238D01*
X132415714Y-107190476D01*
X132463333Y-107380952D01*
X132463333Y-107523809D01*
X132415714Y-107714285D01*
X132368095Y-107809523D01*
X132272857Y-107904761D01*
X132130000Y-107952380D01*
X131891904Y-107952380D01*
X133320476Y-106952380D02*
X133130000Y-106952380D01*
X133034761Y-107000000D01*
X132987142Y-107047619D01*
X132891904Y-107190476D01*
X132844285Y-107380952D01*
X132844285Y-107761904D01*
X132891904Y-107857142D01*
X132939523Y-107904761D01*
X133034761Y-107952380D01*
X133225238Y-107952380D01*
X133320476Y-107904761D01*
X133368095Y-107857142D01*
X133415714Y-107761904D01*
X133415714Y-107523809D01*
X133368095Y-107428571D01*
X133320476Y-107380952D01*
X133225238Y-107333333D01*
X133034761Y-107333333D01*
X132939523Y-107380952D01*
X132891904Y-107428571D01*
X132844285Y-107523809D01*
X127238095Y-105977380D02*
X127238095Y-104977380D01*
X127809523Y-105977380D02*
X127380952Y-105405952D01*
X127809523Y-104977380D02*
X127238095Y-105548809D01*
%TO.C,D5*%
X117481904Y-107952380D02*
X117481904Y-106952380D01*
X117720000Y-106952380D01*
X117862857Y-107000000D01*
X117958095Y-107095238D01*
X118005714Y-107190476D01*
X118053333Y-107380952D01*
X118053333Y-107523809D01*
X118005714Y-107714285D01*
X117958095Y-107809523D01*
X117862857Y-107904761D01*
X117720000Y-107952380D01*
X117481904Y-107952380D01*
X118958095Y-106952380D02*
X118481904Y-106952380D01*
X118434285Y-107428571D01*
X118481904Y-107380952D01*
X118577142Y-107333333D01*
X118815238Y-107333333D01*
X118910476Y-107380952D01*
X118958095Y-107428571D01*
X119005714Y-107523809D01*
X119005714Y-107761904D01*
X118958095Y-107857142D01*
X118910476Y-107904761D01*
X118815238Y-107952380D01*
X118577142Y-107952380D01*
X118481904Y-107904761D01*
X118434285Y-107857142D01*
X123038095Y-105952380D02*
X123038095Y-104952380D01*
X123609523Y-105952380D02*
X123180952Y-105380952D01*
X123609523Y-104952380D02*
X123038095Y-105523809D01*
%TO.C,D3*%
X108261904Y-56452380D02*
X108261904Y-55452380D01*
X108500000Y-55452380D01*
X108642857Y-55500000D01*
X108738095Y-55595238D01*
X108785714Y-55690476D01*
X108833333Y-55880952D01*
X108833333Y-56023809D01*
X108785714Y-56214285D01*
X108738095Y-56309523D01*
X108642857Y-56404761D01*
X108500000Y-56452380D01*
X108261904Y-56452380D01*
X109166666Y-55452380D02*
X109785714Y-55452380D01*
X109452380Y-55833333D01*
X109595238Y-55833333D01*
X109690476Y-55880952D01*
X109738095Y-55928571D01*
X109785714Y-56023809D01*
X109785714Y-56261904D01*
X109738095Y-56357142D01*
X109690476Y-56404761D01*
X109595238Y-56452380D01*
X109309523Y-56452380D01*
X109214285Y-56404761D01*
X109166666Y-56357142D01*
X108238095Y-63952380D02*
X108238095Y-62952380D01*
X108809523Y-63952380D02*
X108380952Y-63380952D01*
X108809523Y-62952380D02*
X108238095Y-63523809D01*
%TO.C,D2*%
X81761904Y-80452380D02*
X81761904Y-79452380D01*
X82000000Y-79452380D01*
X82142857Y-79500000D01*
X82238095Y-79595238D01*
X82285714Y-79690476D01*
X82333333Y-79880952D01*
X82333333Y-80023809D01*
X82285714Y-80214285D01*
X82238095Y-80309523D01*
X82142857Y-80404761D01*
X82000000Y-80452380D01*
X81761904Y-80452380D01*
X82714285Y-79547619D02*
X82761904Y-79500000D01*
X82857142Y-79452380D01*
X83095238Y-79452380D01*
X83190476Y-79500000D01*
X83238095Y-79547619D01*
X83285714Y-79642857D01*
X83285714Y-79738095D01*
X83238095Y-79880952D01*
X82666666Y-80452380D01*
X83285714Y-80452380D01*
X74738095Y-80452380D02*
X74738095Y-79452380D01*
X75309523Y-80452380D02*
X74880952Y-79880952D01*
X75309523Y-79452380D02*
X74738095Y-80023809D01*
%TO.C,D1*%
X100261904Y-80452380D02*
X100261904Y-79452380D01*
X100500000Y-79452380D01*
X100642857Y-79500000D01*
X100738095Y-79595238D01*
X100785714Y-79690476D01*
X100833333Y-79880952D01*
X100833333Y-80023809D01*
X100785714Y-80214285D01*
X100738095Y-80309523D01*
X100642857Y-80404761D01*
X100500000Y-80452380D01*
X100261904Y-80452380D01*
X101785714Y-80452380D02*
X101214285Y-80452380D01*
X101500000Y-80452380D02*
X101500000Y-79452380D01*
X101404761Y-79595238D01*
X101309523Y-79690476D01*
X101214285Y-79738095D01*
X105938095Y-82502380D02*
X105938095Y-81502380D01*
X106509523Y-82502380D02*
X106080952Y-81930952D01*
X106509523Y-81502380D02*
X105938095Y-82073809D01*
%TO.C,C7*%
X143333333Y-64857142D02*
X143285714Y-64904761D01*
X143142857Y-64952380D01*
X143047619Y-64952380D01*
X142904761Y-64904761D01*
X142809523Y-64809523D01*
X142761904Y-64714285D01*
X142714285Y-64523809D01*
X142714285Y-64380952D01*
X142761904Y-64190476D01*
X142809523Y-64095238D01*
X142904761Y-64000000D01*
X143047619Y-63952380D01*
X143142857Y-63952380D01*
X143285714Y-64000000D01*
X143333333Y-64047619D01*
X143666666Y-63952380D02*
X144333333Y-63952380D01*
X143904761Y-64952380D01*
%TO.C,C6*%
X134333333Y-75857142D02*
X134285714Y-75904761D01*
X134142857Y-75952380D01*
X134047619Y-75952380D01*
X133904761Y-75904761D01*
X133809523Y-75809523D01*
X133761904Y-75714285D01*
X133714285Y-75523809D01*
X133714285Y-75380952D01*
X133761904Y-75190476D01*
X133809523Y-75095238D01*
X133904761Y-75000000D01*
X134047619Y-74952380D01*
X134142857Y-74952380D01*
X134285714Y-75000000D01*
X134333333Y-75047619D01*
X135190476Y-74952380D02*
X135000000Y-74952380D01*
X134904761Y-75000000D01*
X134857142Y-75047619D01*
X134761904Y-75190476D01*
X134714285Y-75380952D01*
X134714285Y-75761904D01*
X134761904Y-75857142D01*
X134809523Y-75904761D01*
X134904761Y-75952380D01*
X135095238Y-75952380D01*
X135190476Y-75904761D01*
X135238095Y-75857142D01*
X135285714Y-75761904D01*
X135285714Y-75523809D01*
X135238095Y-75428571D01*
X135190476Y-75380952D01*
X135095238Y-75333333D01*
X134904761Y-75333333D01*
X134809523Y-75380952D01*
X134761904Y-75428571D01*
X134714285Y-75523809D01*
%TO.C,C5*%
X124333333Y-71857142D02*
X124285714Y-71904761D01*
X124142857Y-71952380D01*
X124047619Y-71952380D01*
X123904761Y-71904761D01*
X123809523Y-71809523D01*
X123761904Y-71714285D01*
X123714285Y-71523809D01*
X123714285Y-71380952D01*
X123761904Y-71190476D01*
X123809523Y-71095238D01*
X123904761Y-71000000D01*
X124047619Y-70952380D01*
X124142857Y-70952380D01*
X124285714Y-71000000D01*
X124333333Y-71047619D01*
X125238095Y-70952380D02*
X124761904Y-70952380D01*
X124714285Y-71428571D01*
X124761904Y-71380952D01*
X124857142Y-71333333D01*
X125095238Y-71333333D01*
X125190476Y-71380952D01*
X125238095Y-71428571D01*
X125285714Y-71523809D01*
X125285714Y-71761904D01*
X125238095Y-71857142D01*
X125190476Y-71904761D01*
X125095238Y-71952380D01*
X124857142Y-71952380D01*
X124761904Y-71904761D01*
X124714285Y-71857142D01*
%TO.C,C4*%
X113333333Y-96857142D02*
X113285714Y-96904761D01*
X113142857Y-96952380D01*
X113047619Y-96952380D01*
X112904761Y-96904761D01*
X112809523Y-96809523D01*
X112761904Y-96714285D01*
X112714285Y-96523809D01*
X112714285Y-96380952D01*
X112761904Y-96190476D01*
X112809523Y-96095238D01*
X112904761Y-96000000D01*
X113047619Y-95952380D01*
X113142857Y-95952380D01*
X113285714Y-96000000D01*
X113333333Y-96047619D01*
X114190476Y-96285714D02*
X114190476Y-96952380D01*
X113952380Y-95904761D02*
X113714285Y-96619047D01*
X114333333Y-96619047D01*
%TO.C,C3*%
X147083333Y-108857142D02*
X147035714Y-108904761D01*
X146892857Y-108952380D01*
X146797619Y-108952380D01*
X146654761Y-108904761D01*
X146559523Y-108809523D01*
X146511904Y-108714285D01*
X146464285Y-108523809D01*
X146464285Y-108380952D01*
X146511904Y-108190476D01*
X146559523Y-108095238D01*
X146654761Y-108000000D01*
X146797619Y-107952380D01*
X146892857Y-107952380D01*
X147035714Y-108000000D01*
X147083333Y-108047619D01*
X147416666Y-107952380D02*
X148035714Y-107952380D01*
X147702380Y-108333333D01*
X147845238Y-108333333D01*
X147940476Y-108380952D01*
X147988095Y-108428571D01*
X148035714Y-108523809D01*
X148035714Y-108761904D01*
X147988095Y-108857142D01*
X147940476Y-108904761D01*
X147845238Y-108952380D01*
X147559523Y-108952380D01*
X147464285Y-108904761D01*
X147416666Y-108857142D01*
%TO.C,C2*%
X120333333Y-116857142D02*
X120285714Y-116904761D01*
X120142857Y-116952380D01*
X120047619Y-116952380D01*
X119904761Y-116904761D01*
X119809523Y-116809523D01*
X119761904Y-116714285D01*
X119714285Y-116523809D01*
X119714285Y-116380952D01*
X119761904Y-116190476D01*
X119809523Y-116095238D01*
X119904761Y-116000000D01*
X120047619Y-115952380D01*
X120142857Y-115952380D01*
X120285714Y-116000000D01*
X120333333Y-116047619D01*
X120714285Y-116047619D02*
X120761904Y-116000000D01*
X120857142Y-115952380D01*
X121095238Y-115952380D01*
X121190476Y-116000000D01*
X121238095Y-116047619D01*
X121285714Y-116142857D01*
X121285714Y-116238095D01*
X121238095Y-116380952D01*
X120666666Y-116952380D01*
X121285714Y-116952380D01*
%TO.C,C1*%
X139833333Y-133857142D02*
X139785714Y-133904761D01*
X139642857Y-133952380D01*
X139547619Y-133952380D01*
X139404761Y-133904761D01*
X139309523Y-133809523D01*
X139261904Y-133714285D01*
X139214285Y-133523809D01*
X139214285Y-133380952D01*
X139261904Y-133190476D01*
X139309523Y-133095238D01*
X139404761Y-133000000D01*
X139547619Y-132952380D01*
X139642857Y-132952380D01*
X139785714Y-133000000D01*
X139833333Y-133047619D01*
X140785714Y-133952380D02*
X140214285Y-133952380D01*
X140500000Y-133952380D02*
X140500000Y-132952380D01*
X140404761Y-133095238D01*
X140309523Y-133190476D01*
X140214285Y-133238095D01*
%TD*%
M02*
